<?xml version="1.0" encoding="UTF-8"?>
<svg version="1.1" xmlns="http://www.w3.org/2000/svg" width="1479" height="1457">
<path d="M0 0 C4.0810631 1.61684123 6.80658732 4.54243726 9.8125 7.625 C10.3494751 8.16987061 10.8864502 8.71474121 11.43969727 9.27612305 C14.75450783 12.66209055 17.98155691 16.09921104 21.05078125 19.7109375 C22.63305217 21.56907529 24.23589641 23.4012055 25.85546875 25.2265625 C34.03620754 34.48466701 41.63317627 44.08533549 49 54 C49.804375 55.07290283 49.804375 55.07290283 50.625 56.16748047 C93.87119993 113.98068464 120.59886318 182.77638065 131 254 C131.14725525 254.97697845 131.14725525 254.97697845 131.29748535 255.97369385 C137.41514764 296.63122608 137.90849036 339.3795119 131.32287598 380.0067749 C130.99130296 382.05368983 130.67049107 384.10211073 130.35058594 386.15087891 C123.42097779 430.00201712 110.61198525 472.42887451 90.08349609 511.90673828 C88.8910854 514.21041771 87.72117422 516.52490532 86.55078125 518.83984375 C69.48917659 552.31012895 48.17926909 584.0708616 23 612 C22.21447754 612.87164795 21.42895508 613.7432959 20.61962891 614.64135742 C14.41846935 621.48313822 8.05014676 628.13620575 1.52050781 634.66479492 C-0.00486713 636.19237416 -1.52200672 637.72783582 -3.0390625 639.26367188 C-9.36816876 645.62840329 -15.97344133 651.40059951 -23 657 C-24.10180559 657.93480613 -25.1981494 658.87615116 -26.28515625 659.828125 C-47.93197964 678.70439856 -72.6041801 693.74586748 -98 707 C-98.72380859 707.37850098 -99.44761719 707.75700195 -100.19335938 708.14697266 C-104.75579382 710.51660069 -109.36066151 712.78516196 -114 715 C-114.70640625 715.34063477 -115.4128125 715.68126953 -116.140625 716.03222656 C-160.13203836 737.08580944 -208.6590132 750.14904584 -257 756 C-257.90588867 756.11037598 -258.81177734 756.22075195 -259.74511719 756.33447266 C-349.66071174 766.96694985 -439.37855706 746.7108924 -518.8125 704.3125 C-520.43176392 703.44842529 -520.43176392 703.44842529 -522.08374023 702.56689453 C-531.51155203 697.40658585 -531.51155203 697.40658585 -534 694 C-534.24421452 688.63962628 -533.79873933 683.61998953 -533.02197266 678.30224609 C-532.91789597 677.57919785 -532.81381927 676.8561496 -532.70658875 676.1111908 C-532.36479656 673.74773352 -532.01473204 671.38559263 -531.6640625 669.0234375 C-531.42188811 667.36777677 -531.18006239 665.712065 -530.93856812 664.05630493 C-530.43281219 660.59785102 -529.92296243 657.14003253 -529.41015625 653.68261719 C-528.75467085 649.26107022 -528.1092837 644.83811928 -527.46692848 640.41464806 C-526.96990725 636.99963601 -526.46762435 633.58541377 -525.96375656 630.17140579 C-525.72375591 628.5410257 -525.48535538 626.91040919 -525.24861526 625.27955246 C-524.91667121 622.99853254 -524.5776625 620.71866925 -524.23681641 618.43896484 C-524.04584381 617.14405121 -523.85487122 615.84913757 -523.65811157 614.51498413 C-523.03143466 611.16789302 -522.30211871 608.14685112 -521 605 C-517.03392026 602.98365717 -512.7990224 602.6353674 -508.42871094 602.11474609 C-480.55035907 598.73240587 -456.10651586 586.92376764 -438.09765625 565.19140625 C-431.59937329 555.30481932 -428.22780424 544.87895241 -425.25 533.5625 C-424.83010566 532.00521876 -424.40901999 530.44825832 -423.98681641 528.89160156 C-423.10364219 525.62700447 -422.22799669 522.36052426 -421.35839844 519.09228516 C-419.96614848 513.86307115 -418.551254 508.64012997 -417.1328125 503.41796875 C-414.74335468 494.61514697 -412.36819504 485.80856485 -410 477 C-420.82347482 477.59125944 -431.50882769 478.69602154 -442.2578125 480.06640625 C-443.86101591 480.267222 -445.46427854 480.46756554 -447.06759644 480.66746521 C-451.23836793 481.18832628 -455.40855128 481.71373181 -459.57855225 482.24072266 C-466.28526015 483.08820388 -472.99246095 483.93166053 -479.70040512 484.76930046 C-482.0300358 485.06135692 -484.35915453 485.3572691 -486.68826294 485.65345764 C-488.11523411 485.83236863 -489.54222485 486.01112364 -490.96923828 486.18969727 C-492.20972931 486.34656509 -493.45022034 486.50343292 -494.728302 486.66505432 C-497.52032729 486.95089269 -500.19762704 487.06887543 -503 487 C-502.5518821 483.76933036 -502.08969975 480.5408228 -501.625 477.3125 C-501.49867188 476.40048828 -501.37234375 475.48847656 -501.2421875 474.54882812 C-499.83112859 464.84779815 -499.83112859 464.84779815 -498 462 C-493.06000777 459.9387072 -488.09127132 459.356656 -482.82373047 458.75073242 C-481.91863739 458.64142899 -481.01354431 458.53212555 -480.08102417 458.41950989 C-478.12037386 458.18334819 -476.15938914 457.94994986 -474.1981163 457.71901512 C-471.07442731 457.35042309 -467.95193486 456.97289935 -464.82962036 456.59284973 C-455.95290006 455.51368419 -447.07461117 454.44791768 -438.19482422 453.39428711 C-432.75299487 452.74794804 -427.31280965 452.08896278 -421.87338638 451.42269325 C-419.81950701 451.17361667 -417.76505831 450.92918148 -415.71001816 450.68987083 C-391.83600439 447.90765646 -368.86557064 443.32729034 -349 429 C-348.08734375 428.34515625 -347.1746875 427.6903125 -346.234375 427.015625 C-331.28110767 415.57094554 -322.89437585 400.2557984 -318.30859375 382.17578125 C-317.83970482 380.39726021 -317.83970482 380.39726021 -317.36134338 378.58280945 C-316.37425495 374.8291713 -315.40519357 371.07117968 -314.4375 367.3125 C-313.1488788 362.36995315 -311.85346153 357.4291946 -310.55859375 352.48828125 C-310.25150482 351.31065216 -309.94441589 350.13302307 -309.62802124 348.91970825 C-307.26374024 339.88847822 -304.70820854 330.93363444 -302 322 C-303.12742111 322.16748245 -304.25484222 322.3349649 -305.41642761 322.50752258 C-321.62984501 324.88481001 -337.88511106 326.91583869 -354.14553857 328.93890548 C-356.51284165 329.23352539 -358.88008251 329.52864047 -361.24730492 329.82390785 C-369.52976753 330.85691476 -377.81249597 331.88776157 -386.09545898 332.91674805 C-393.78464852 333.87203714 -401.47318277 334.83248211 -409.16144782 335.7951805 C-415.80439792 336.6267343 -422.4478113 337.45451523 -429.09159058 338.27941781 C-433.04222918 338.77001063 -436.99266178 339.26213531 -440.94262123 339.75816917 C-444.64491657 340.22298702 -448.34776754 340.68309612 -452.05109024 341.13965416 C-454.04647701 341.38683694 -456.04126428 341.63884447 -458.036026 341.89102173 C-464.07302262 342.63072167 -469.9173778 343.19477406 -476 343 C-475.38146684 337.05256576 -474.2591333 331.45334009 -472.6875 325.6875 C-472.48705078 324.89021484 -472.28660156 324.09292969 -472.08007812 323.27148438 C-471.76780273 322.12196289 -471.76780273 322.12196289 -471.44921875 320.94921875 C-471.26705811 320.26174561 -471.08489746 319.57427246 -470.8972168 318.8659668 C-469.67183458 316.31750522 -468.4202567 315.48026403 -466 314 C-462.83685589 313.30403423 -462.83685589 313.30403423 -459.02384949 312.84440613 C-458.32107653 312.7562381 -457.61830358 312.66807006 -456.89423448 312.57723027 C-454.53908416 312.2847802 -452.18220739 312.01002554 -449.82495117 311.73510742 C-448.13383516 311.52873216 -446.44285383 311.32125074 -444.7519989 311.11274719 C-441.10358156 310.66525057 -437.45433456 310.22558292 -433.80425072 309.7918911 C-427.99061909 309.10102631 -422.17921803 308.39252641 -416.36799622 307.68171692 C-407.12610178 306.55336656 -397.8828535 305.43657424 -388.63895446 304.32477695 C-372.22256496 302.35025203 -355.80783129 300.36214611 -339.39463598 298.36124498 C-333.662812 297.66301576 -327.93021632 296.97164997 -322.19691473 296.28566653 C-304.57405816 294.17384604 -286.96634569 291.96878602 -269.41001379 289.3544203 C-267.77671435 289.11191239 -266.14287279 288.8730188 -264.50843275 288.63832128 C-237.81048255 284.7802359 -213.11156699 276.24792269 -196 254 C-185.92581958 239.2667843 -181.58224496 222.52606007 -177.0625 205.5 C-176.05604971 201.73886642 -175.04580513 197.97875726 -174.03515625 194.21875 C-173.7889151 193.2999707 -173.54267395 192.38119141 -173.28897095 191.43457031 C-170.64099815 181.5901543 -167.83115562 171.79304464 -165 162 C-165.66891819 162.12793107 -166.33783637 162.25586215 -167.02702481 162.38766992 C-173.59531542 163.61680441 -180.15514476 164.60576356 -186.78684998 165.41738892 C-187.81431448 165.54568789 -188.84177898 165.67398686 -189.90037876 165.80617368 C-193.31139819 166.23133271 -196.72294963 166.65205251 -200.13452148 167.07275391 C-202.59270929 167.37820236 -205.05086376 167.68391926 -207.50898743 167.98988342 C-213.47158668 168.73130286 -219.43453915 169.46981637 -225.39767408 170.20691063 C-230.24305911 170.80591465 -235.08828352 171.40620261 -239.93339729 172.0073967 C-240.62459232 172.09316192 -241.31578735 172.17892714 -242.02792769 172.2672913 C-243.43225834 172.44155153 -244.83658854 172.61581548 -246.24091829 172.7900831 C-258.63416209 174.32787069 -271.02779316 175.86251482 -283.42163086 177.39550781 C-295.44508223 178.88268796 -307.468195 180.37257028 -319.4909668 181.86523438 C-332.59800137 183.49250998 -345.70522619 185.11823807 -358.81278092 186.74131906 C-360.2096251 186.91428992 -361.60646915 187.08726184 -363.00331306 187.26023483 C-363.69053292 187.34533228 -364.37775277 187.43042972 -365.08579747 187.51810587 C-369.92874354 188.11790156 -374.77155456 188.71878006 -379.61431694 189.32005692 C-386.12540101 190.12842756 -392.63680643 190.93417208 -399.14843559 191.73814201 C-401.5415178 192.0340026 -403.93449684 192.33069899 -406.32736588 192.62827873 C-409.58531502 193.03330108 -412.84361955 193.4353316 -416.10203552 193.83657837 C-417.53240911 194.01546111 -417.53240911 194.01546111 -418.99167913 194.19795763 C-420.29972323 194.35808543 -420.29972323 194.35808543 -421.63419247 194.52144814 C-422.38615145 194.61453463 -423.13811043 194.70762113 -423.91285604 194.80352843 C-425.93402537 194.99378953 -427.96989539 195 -430 195 C-429.38263386 188.84726628 -426.99630796 183.42412645 -424.6875 177.75 C-424.29626953 176.74453125 -423.90503906 175.7390625 -423.50195312 174.703125 C-422.91897461 173.26453125 -422.91897461 173.26453125 -422.32421875 171.796875 C-421.97447998 170.92385742 -421.62474121 170.05083984 -421.2644043 169.15136719 C-419.74590901 166.56766755 -418.73005768 166.13512445 -416 165 C-413.93536925 164.55562341 -413.93536925 164.55562341 -411.68853378 164.27649498 C-410.82828905 164.16597782 -409.96804431 164.05546065 -409.08173156 163.94159448 C-408.14095582 163.82836678 -407.20018009 163.71513907 -406.230896 163.59848022 C-405.2272451 163.47174223 -404.22359421 163.34500423 -403.18952966 163.21442568 C-399.81436666 162.79005345 -396.43798869 162.37627589 -393.06152344 161.96240234 C-390.64255988 161.66045503 -388.22367745 161.35785717 -385.80487061 161.05465698 C-380.57814882 160.40097438 -375.35089176 159.75184659 -370.12310028 159.10679245 C-362.49492478 158.16553931 -354.86779991 157.21598642 -347.24089506 156.26449879 C-334.77426654 154.70946017 -322.30682855 153.16101224 -309.83886719 151.61669922 C-297.88663557 150.13625079 -285.93475911 148.65299118 -273.98339844 147.16552734 C-272.89224718 147.02972456 -272.89224718 147.02972456 -271.77905247 146.8911783 C-268.12043808 146.43581323 -264.46183166 145.98038409 -260.80322981 145.52491832 C-253.5438434 144.62119359 -246.2844143 143.71781201 -239.02496338 142.81460571 C-238.31523354 142.72630157 -237.6055037 142.63799743 -236.87426689 142.54701741 C-225.34129793 141.11218012 -213.80804156 139.67967185 -202.27444911 138.24985397 C-195.89263814 137.45860435 -189.51102813 136.66580883 -183.129879 135.8692379 C-171.10186065 134.36901949 -159.07261041 132.88342401 -147.03720164 131.44385231 C-141.94633051 130.83458864 -136.85647421 130.21702995 -131.76684399 129.59749348 C-128.30469842 129.17661457 -124.84217016 128.75997962 -121.37818861 128.3544662 C-92.34900584 124.94133773 -61.72814305 120.72478276 -39.7421875 99.50390625 C-38 98 -38 98 -36 98 C-35.74605469 97.42894531 -35.49210937 96.85789062 -35.23046875 96.26953125 C-33.85691082 93.73607996 -32.21453047 91.85110637 -30.3125 89.6875 C-21.65117703 78.9519827 -17.78078158 66.08350178 -14.4140625 52.94921875 C-14.02419433 51.47294917 -13.63300243 49.99702862 -13.24057007 48.5214386 C-12.22590769 44.69342666 -11.22764547 40.86134343 -10.23352051 37.0279541 C-9.0141854 32.33822249 -7.77617548 27.65339172 -6.53980064 22.96812916 C-5.58057889 19.33246726 -4.62447835 15.69608922 -3.6781311 12.05705261 C-3.41827423 11.06234703 -3.41827423 11.06234703 -3.15316772 10.04754639 C-2.68622482 8.25977638 -2.22128993 6.47148226 -1.75650024 4.68315125 C-1 2 -1 2 0 0 Z " fill="#019796" transform="translate(1033,413)"/>
<path d="M0 0 C2.1041656 0.00502691 4.20833236 0.0095877 6.3125 0.01367188 C11.41669601 0.02457883 16.52083479 0.04177728 21.625 0.0625 C17.51924764 8.55743016 17.51924764 8.55743016 15.03125 11.7109375 C14.33189331 12.61465088 14.33189331 12.61465088 13.6184082 13.53662109 C13.1255835 14.16391113 12.63275879 14.79120117 12.125 15.4375 C6.17508576 23.20395281 0.71254793 31.21833995 -4.63818359 39.40576172 C-6.58243225 42.37980078 -8.53531032 45.34808811 -10.48828125 48.31640625 C-14.80432991 54.88521232 -19.09711887 61.46876544 -23.375 68.0625 C-23.91092773 68.8879834 -24.44685547 69.7134668 -24.99902344 70.56396484 C-41.80461129 96.54695288 -57.49016113 123.44824647 -71.94921875 150.80078125 C-72.82731201 152.45303711 -72.82731201 152.45303711 -73.72314453 154.13867188 C-74.83484912 156.23732696 -75.93672003 158.34123231 -77.02685547 160.45117188 C-82.02654229 169.89700299 -82.02654229 169.89700299 -86.375 172.0625 C-90.55257162 172.99366663 -94.75232169 173.49876111 -99 174 C-127.62125827 177.85278833 -153.97538886 186.29826881 -173.375 209.0625 C-178.07013002 215.37973224 -181.55243659 221.94419496 -184.296875 229.30078125 C-184.55300064 229.98708618 -184.80912628 230.67339111 -185.07301331 231.38049316 C-188.11182033 239.77411208 -190.2006908 248.39933178 -192.3125 257.0625 C-193.10691472 260.29327285 -193.90781194 263.52235573 -194.71484375 266.75 C-194.91556488 267.55373047 -195.11628601 268.35746094 -195.3230896 269.18554688 C-198.03877903 279.89496893 -201.2186874 290.47629933 -204.375 301.0625 C-203.69119263 300.97480347 -203.00738525 300.88710693 -202.30285645 300.79675293 C-195.83087393 299.96764516 -189.35829437 299.14338334 -182.8850174 298.32444 C-179.55776789 297.90333469 -176.23077054 297.48041687 -172.90429688 297.05322266 C-169.07219455 296.56203764 -165.23932383 296.07728772 -161.40625 295.59375 C-159.63078796 295.36407532 -159.63078796 295.36407532 -157.81945801 295.12976074 C-151.95248856 294.3959941 -146.28771549 293.88486477 -140.375 294.0625 C-142.08733029 300.3110035 -144.15013844 306.41843654 -146.375 312.5 C-146.6239502 313.19802734 -146.87290039 313.89605469 -147.12939453 314.61523438 C-148.42686876 318.10575442 -149.46966605 320.70709385 -152.375 323.0625 C-154.57299805 323.91870117 -154.57299805 323.91870117 -157.13671875 324.60546875 C-158.08337402 324.87045166 -159.0300293 325.13543457 -160.00537109 325.40844727 C-161.01422363 325.68615967 -162.02307617 325.96387207 -163.0625 326.25 C-186.68226289 333.09254021 -208.74448588 345.77827912 -221.28395081 367.69816589 C-224.20960748 373.24294196 -226.00855852 378.88675068 -227.6953125 384.91015625 C-227.99228531 385.94978516 -228.28925812 386.98941406 -228.5952301 388.06054688 C-232.02615269 400.17695409 -235.17768265 412.36687031 -238.3125 424.5625 C-238.90656028 426.86206722 -239.50096001 429.16154678 -240.09570312 431.4609375 C-241.52602533 436.99379363 -242.95224869 442.52769248 -244.375 448.0625 C-233.12789103 447.45457559 -222.05860972 446.2237661 -210.90185547 444.71655273 C-203.36379324 443.70462019 -195.99555028 442.80059639 -188.375 443.0625 C-189.2388665 447.31964842 -190.1465182 451.56628608 -191.0625 455.8125 C-191.30677734 457.0190625 -191.55105469 458.225625 -191.80273438 459.46875 C-192.05732422 460.62890625 -192.31191406 461.7890625 -192.57421875 462.984375 C-192.79940186 464.05268555 -193.02458496 465.12099609 -193.2565918 466.22167969 C-194.64124366 469.738774 -196.24522044 471.00743389 -199.375 473.0625 C-201.79388036 474.05178862 -204.15351037 474.92677789 -206.625 475.75 C-227.66185412 483.27797761 -246.3670644 495.26331247 -257.5 515.25 C-260.11377812 520.95964882 -261.8897368 526.80271635 -263.62109375 532.83203125 C-263.92342422 533.8772998 -264.2257547 534.92256836 -264.5372467 535.99951172 C-268.01412961 548.1298761 -271.17125092 560.34184844 -274.3125 572.5625 C-274.90656028 574.86206722 -275.50096001 577.16154678 -276.09570312 579.4609375 C-277.52602533 584.99379363 -278.95224869 590.52769248 -280.375 596.0625 C-279.67422333 595.97480347 -278.97344666 595.88710693 -278.25143433 595.79675293 C-271.63148957 594.96898331 -265.01111501 594.14475081 -258.39024162 593.32444 C-254.98680427 592.90263673 -251.58354528 592.47949112 -248.18066406 592.05322266 C-244.26417156 591.56267652 -240.34695527 591.07806788 -236.4296875 590.59375 C-234.60593094 590.36407532 -234.60593094 590.36407532 -232.74533081 590.12976074 C-231.60460114 589.98961548 -230.46387146 589.84947021 -229.28857422 589.70507812 C-227.78966141 589.51854675 -227.78966141 589.51854675 -226.26046753 589.32824707 C-223.28210311 589.05394434 -220.36422587 589.01686032 -217.375 589.0625 C-217.7803172 597.72790227 -218.98505524 605.72023999 -221.375 614.0625 C-222.43460937 614.28292969 -222.43460937 614.28292969 -223.515625 614.5078125 C-250.59878744 620.42800128 -278.98810628 630.05644297 -295.0625 654.375 C-301.24888333 664.15347688 -304.61817876 674.61985146 -307.51171875 685.7421875 C-307.87999543 687.12721094 -308.24922078 688.51198243 -308.61933899 689.89651489 C-309.5819396 693.50578096 -310.53361197 697.11782933 -311.4822998 700.73077393 C-313.00788225 706.53315489 -314.55028783 712.33108443 -316.09284401 718.1289711 C-316.62690919 720.1426999 -317.15620927 722.15763307 -317.68473816 724.17282104 C-318.00880142 725.39824615 -318.33286469 726.62367126 -318.66674805 727.88623047 C-318.94922897 728.96113739 -319.2317099 730.03604431 -319.52275085 731.14352417 C-320.31904746 733.87086108 -321.26989606 736.447093 -322.375 739.0625 C-325.90100079 737.8871664 -326.52878216 736.90504254 -328.75 734 C-329.80767578 732.63681641 -329.80767578 732.63681641 -330.88671875 731.24609375 C-331.28036621 730.73804199 -331.67401367 730.22999023 -332.07958984 729.70654297 C-333.47167095 727.93981207 -334.89693182 726.20460942 -336.33203125 724.47265625 C-352.76184423 704.62406861 -367.48896368 683.37706598 -380.375 661.0625 C-380.75301758 660.41474609 -381.13103516 659.76699219 -381.52050781 659.09960938 C-411.12662856 608.15640908 -429.44818354 550.76580294 -436.01098633 492.25561523 C-436.28118819 489.88541396 -436.57664948 487.51806368 -436.88549805 485.15258789 C-438.70347769 470.587113 -438.81502645 456.03796318 -438.8125 441.375 C-438.8135675 440.05601715 -438.81463501 438.7370343 -438.81573486 437.37808228 C-438.80570265 414.61047916 -437.24875945 392.4962147 -433.375 370.0625 C-433.13701438 368.64442809 -432.89938083 367.22629705 -432.66210938 365.80810547 C-426.28617766 328.1498295 -414.95953612 291.90068744 -399.375 257.0625 C-399.02759766 256.27133789 -398.68019531 255.48017578 -398.32226562 254.66503906 C-379.60970663 212.1347706 -351.58925653 174.18523967 -320.375 140.0625 C-319.90562012 139.54800293 -319.43624023 139.03350586 -318.95263672 138.50341797 C-311.14720603 129.95532978 -303.34715922 121.51045024 -294.55078125 113.9609375 C-292.06847802 111.79504995 -289.66444855 109.55373043 -287.25 107.3125 C-280.90000615 101.53024975 -274.19647592 96.27383954 -267.375 91.0625 C-266.73369141 90.56959473 -266.09238281 90.07668945 -265.43164062 89.56884766 C-199.72776694 39.15588041 -119.76590875 8.66529166 -37.375 1.0625 C-36.36824219 0.96461182 -35.36148437 0.86672363 -34.32421875 0.76586914 C-22.89549587 -0.21027704 -11.46085805 -0.0479496 0 0 Z " fill="#98BF64" transform="translate(724.375,288.9375)"/>
<path d="M0 0 C1.23911133 0.12874512 2.47822266 0.25749023 3.75488281 0.39013672 C80.46154089 10.42193248 153.86018317 41.93956613 214.4921875 89.87890625 C215.15750488 90.40291016 215.82282227 90.92691406 216.50830078 91.46679688 C224.60076061 97.86786995 232.42505941 104.46923131 239.94140625 111.5390625 C242.47453642 113.92954096 242.47453642 113.92954096 245.32421875 116.0625 C246.03964844 116.66191406 246.75507812 117.26132812 247.4921875 117.87890625 C247.4921875 118.53890625 247.4921875 119.19890625 247.4921875 119.87890625 C212.83556513 124.7448956 178.09348377 128.95963286 143.36346865 133.26111054 C138.18123421 133.90299546 132.99909089 134.54561394 127.81696701 135.18839073 C110.6399403 137.31890196 93.46270218 139.44769708 76.28518613 141.57425932 C75.3670415 141.68792513 74.44889688 141.80159094 73.50292969 141.91870117 C72.58364576 142.03250764 71.66436184 142.14631411 70.71722083 142.26356926 C55.73123179 144.11893127 40.74577307 145.97854003 25.76053973 147.83999471 C10.30455348 149.75987533 -5.15182386 151.67657919 -20.60861456 153.58997267 C-29.25996263 154.66098868 -37.91114354 155.73331531 -46.56190109 156.80909157 C-53.90046036 157.72166442 -61.23937646 158.631298 -68.57877539 159.53709409 C-72.31881374 159.99875903 -76.05866839 160.46179746 -79.79807472 160.92855644 C-83.85028401 161.43431871 -87.9032809 161.93346429 -91.95639038 162.43196106 C-93.13641077 162.58029744 -94.31643117 162.72863383 -95.53220975 162.88146526 C-100.89898196 163.53613979 -106.10057317 164.0589807 -111.5078125 163.87890625 C-109.82805829 157.82161076 -106.81730415 152.54901042 -103.8203125 147.06640625 C-103.24724365 146.01396729 -102.6741748 144.96152832 -102.08374023 143.87719727 C-96.13536678 133.04979383 -89.79544965 122.47040204 -83.36328125 111.92529297 C-81.56885174 108.97912304 -79.7865362 106.02598514 -78.0078125 103.0703125 C-65.46092293 82.26383221 -52.40135205 61.81275192 -38.5078125 41.87890625 C-37.94352539 41.06615234 -37.37923828 40.25339844 -36.79785156 39.41601562 C-33.30599344 34.38758412 -29.79634245 29.37217491 -26.26611328 24.37060547 C-25.07749615 22.68620857 -23.891028 21.00029347 -22.70654297 19.31298828 C-20.96049329 16.82941178 -19.2044324 14.35323663 -17.4453125 11.87890625 C-16.65930664 10.75730103 -16.65930664 10.75730103 -15.85742188 9.61303711 C-15.35919922 8.91702393 -14.86097656 8.22101074 -14.34765625 7.50390625 C-13.70364868 6.59511719 -13.70364868 6.59511719 -13.04663086 5.66796875 C-8.93991827 0.89341856 -6.34908914 -0.6805518 0 0 Z " fill="#019796" transform="translate(784.5078125,292.12109375)"/>
<path d="M0 0 C5.43733055 4.52991796 10.46458931 9.34294216 15.4375 14.375 C16.16904297 15.11105469 16.90058594 15.84710938 17.65429688 16.60546875 C19.43852723 18.40136074 21.22036124 20.19955985 23 22 C21.35 23.98 19.7 25.96 18 28 C18.88042969 28.23074219 19.76085938 28.46148437 20.66796875 28.69921875 C32.16468486 31.92748643 32.16468486 31.92748643 36 37 C37.0828125 38.175625 37.0828125 38.175625 38.1875 39.375 C41.82275892 44.63985774 42.86334822 50.70198542 42 57 C37.76357977 74.61600059 22.27589537 88.59658635 9 100 C8.40622559 100.51191895 7.81245117 101.02383789 7.20068359 101.55126953 C3.14492784 105.04732895 -0.92332484 108.52836453 -5 112 C2.33812622 108.1115478 9.40577632 103.95054739 16.375 99.4375 C24.90491612 93.95839756 33.48501978 88.57122831 42.12255859 83.26342773 C42.93805176 82.76141846 43.75354492 82.25940918 44.59375 81.7421875 C45.35816406 81.27522461 46.12257813 80.80826172 46.91015625 80.32714844 C48.76981109 79.14618072 50.51497221 77.88378498 52.28125 76.5703125 C55 75 55 75 57.6484375 75.0546875 C68.47572667 79.4071858 78.50328196 96.5582166 83.140625 106.82421875 C87.31436584 117.3913717 87.68455255 128.96691127 83.26171875 139.53515625 C76.61852665 152.51303309 65.0449199 159.58405081 51.51953125 164.18359375 C38.38197277 167.23104072 26.33569583 164.47754048 14.86328125 157.921875 C3.17985333 150.07979241 -13.50100757 134.39976242 -16.41015625 119.96484375 C-17.36117754 116.79687216 -19.74694693 114.75963965 -22 112.4375 C-26.61945704 107.55206044 -30.92671709 102.53291482 -35.125 97.27734375 C-36.89202673 95.02717887 -36.89202673 95.02717887 -38.75 93.37890625 C-40 92 -40 92 -40 89 C-37.97143555 87.33349609 -37.97143555 87.33349609 -35.13671875 85.5234375 C-34.10353516 84.85183594 -33.07035156 84.18023437 -32.00585938 83.48828125 C-30.91080078 82.79089844 -29.81574219 82.09351563 -28.6875 81.375 C-20.3456001 76.03168873 -12.55331048 70.4141963 -5 64 C-4.22495117 63.36030273 -3.44990234 62.72060547 -2.65136719 62.06152344 C2.65740158 57.67142774 7.90211982 52.76416061 9.875 46 C9.91625 45.34 9.9575 44.68 10 44 C0.22389434 43.18532453 -5.6600825 48.22828084 -12.890625 54.3203125 C-13.92819661 55.21224825 -14.9645917 56.10555388 -16 57 C-16.57169922 57.49209961 -17.14339844 57.98419922 -17.73242188 58.49121094 C-23.4906396 63.45294752 -29.2292577 68.43680879 -34.9296875 73.46484375 C-36.18217416 74.56003023 -37.43477399 75.6550873 -38.6875 76.75 C-39.26346924 77.26344971 -39.83943848 77.77689941 -40.43286133 78.3059082 C-45.73956752 82.92431337 -45.73956752 82.92431337 -49 83 C-51.03124373 81.41818925 -52.66495909 79.91729989 -54.421875 78.06640625 C-55.17914886 77.29852028 -55.17914886 77.29852028 -55.95172119 76.51512146 C-57.56323701 74.87559217 -59.15652519 73.21955066 -60.75 71.5625 C-61.83868766 70.44873855 -62.92851831 69.33609314 -64.01953125 68.22460938 C-66.69312799 65.49585134 -69.35050219 62.75215479 -72 60 C-70.14500334 55.86465366 -67.43812112 53.72899327 -63.875 51.0625 C-62.60050794 50.08601026 -61.32711296 49.10808737 -60.0546875 48.12890625 C-59.05646973 47.36344482 -59.05646973 47.36344482 -58.03808594 46.58251953 C-54.64412646 43.94720026 -51.32452387 41.22201201 -48 38.5 C-43.06123886 34.46710244 -38.09182503 30.48183022 -33.0625 26.5625 C-26.95125398 21.79765027 -20.97148277 16.88246127 -15.00244141 11.94116211 C-10.07257587 7.86561662 -5.08715458 3.87812127 0 0 Z M-8 113 C-8.33 113.66 -8.66 114.32 -9 115 C-8.01 114.67 -7.02 114.34 -6 114 C-6.66 113.67 -7.32 113.34 -8 113 Z M50.22851562 116.21582031 C49.13216797 116.83038086 48.03582031 117.44494141 46.90625 118.078125 C46.02434998 118.5689859 46.02434998 118.5689859 45.12463379 119.06976318 C43.8813319 119.76451556 42.64078627 120.46422003 41.40283203 121.16845703 C39.5131628 122.24251845 37.6150259 123.30014061 35.71484375 124.35546875 C28.83059047 127.97077779 28.83059047 127.97077779 23 133 C28.09457296 137.36677682 32.01261573 139.5017894 38.8828125 139.3203125 C44.58180787 138.45810287 49.93243938 134.9513446 54 131 C57.22802353 126.37316627 57.14512841 123.10696576 56.32421875 117.7578125 C56.21722656 117.17773438 56.11023437 116.59765625 56 116 C53.00412398 114.62876083 53.00412398 114.62876083 50.22851562 116.21582031 Z " fill="#006E32" transform="translate(1177,275)"/>
<path d="M0 0 C8.33223836 7.66826312 17.20922332 18.74472634 21 29.55859375 C22.69235457 33.32525792 25.37898479 36.07513693 28.125 39.125 C29.29655211 40.44965546 30.46711187 41.77518918 31.63671875 43.1015625 C32.22114746 43.76188477 32.80557617 44.42220703 33.40771484 45.10253906 C35.96911538 48.02590038 38.45896869 51.00632475 40.9375 54 C41.74832031 54.97839844 42.55914062 55.95679688 43.39453125 56.96484375 C43.96558594 57.65707031 44.53664063 58.34929687 45.125 59.0625 C40.62147924 62.82609139 35.79942455 66.03987728 30.9375 69.3125 C24.09377423 73.96263259 17.40621555 78.66266283 11.125 84.0625 C10.26519531 84.78953125 9.40539062 85.5165625 8.51953125 86.265625 C0.88799341 92.8640849 0.88799341 92.8640849 -4.875 101.0625 C-4.875 102.3825 -4.875 103.7025 -4.875 105.0625 C-0.30063824 106.51660175 2.98253419 105.18931161 7.125 103.0625 C10.31836969 100.95204566 13.20770892 98.53671379 16.125 96.0625 C16.63305176 95.63259766 17.14110352 95.20269531 17.66455078 94.75976562 C21.21505425 91.7497615 24.74246404 88.71361672 28.26367188 85.66943359 C31.35572921 82.99997905 34.45964925 80.34439192 37.5625 77.6875 C38.66542114 76.74225348 39.76828753 75.79694309 40.87109375 74.8515625 C44.2890625 71.921875 47.70703125 68.9921875 51.125 66.0625 C54.40606505 67.49773734 56.57625586 69.26775079 59.09375 71.80078125 C59.82980469 72.53876953 60.56585938 73.27675781 61.32421875 74.03710938 C62.08347656 74.80861328 62.84273437 75.58011719 63.625 76.375 C64.38425781 77.13490234 65.14351562 77.89480469 65.92578125 78.67773438 C76.125 88.95733226 76.125 88.95733226 76.125 92.0625 C74.1610829 93.74717264 72.18691296 95.31759766 70.125 96.875 C68.83232004 97.8697784 67.54069367 98.86592705 66.25 99.86328125 C65.23292969 100.64759521 65.23292969 100.64759521 64.1953125 101.44775391 C60.79528027 104.09961867 57.46172464 106.83171317 54.125 109.5625 C49.10596913 113.66217054 44.05103774 117.70640913 38.9375 121.6875 C33.77018122 125.71505506 28.73924991 129.87723725 23.75732422 134.13134766 C17.69781396 139.30035873 11.51627939 144.30889537 5.125 149.0625 C-0.51258093 146.64880037 -4.36512406 141.90060665 -8.625 137.625 C-9.51316406 136.75294922 -10.40132813 135.88089844 -11.31640625 134.98242188 C-12.15558594 134.14388672 -12.99476563 133.30535156 -13.859375 132.44140625 C-14.62991211 131.6738501 -15.40044922 130.90629395 -16.19433594 130.11547852 C-17.875 128.0625 -17.875 128.0625 -17.875 125.0625 C-15.375 122.875 -15.375 122.875 -12.875 121.0625 C-13.81859375 120.93294922 -13.81859375 120.93294922 -14.78125 120.80078125 C-22.61089083 119.51549383 -28.7504116 117.13431404 -33.75 110.75 C-37.5566455 104.78282598 -38.47126933 98.73708948 -37.53125 91.76171875 C-33.14300807 73.71246177 -16.54241204 59.57812225 -2.875 48.0625 C-1.74717245 47.10573201 -0.61958968 46.14867544 0.5078125 45.19140625 C3.70881331 42.47614021 6.91567564 39.7679213 10.125 37.0625 C2.85527027 40.91790917 -4.15597671 45.02955597 -11.0625 49.5 C-12.97078561 50.72484459 -14.87966274 51.94876798 -16.7890625 53.171875 C-17.77551758 53.80416016 -18.76197266 54.43644531 -19.77832031 55.08789062 C-25.14355176 58.50905051 -30.53993018 61.88017366 -35.9375 65.25 C-36.95416748 65.88542725 -37.97083496 66.52085449 -39.01831055 67.17553711 C-44.353388 70.50540014 -44.353388 70.50540014 -46.875 72.0625 C-47.76002197 72.63299072 -48.64504395 73.20348145 -49.55688477 73.79125977 C-51.875 75.0625 -51.875 75.0625 -53.9296875 74.484375 C-66.73588404 65.12402251 -78.27878893 48.76700409 -81.59375 33.1484375 C-83.08636211 22.07823105 -81.23023027 12.33694096 -74.6484375 3.21875 C-66.48615093 -6.70543984 -54.5323371 -14.10382624 -41.6484375 -15.78515625 C-25.01938321 -16.69858318 -12.49335821 -10.47006278 0 0 Z M-47.10546875 16.359375 C-49.97197397 19.11830718 -51.37139704 21.33617961 -52.875 25.0625 C-52.70634015 28.49191701 -52.40830191 30.99589618 -50.875 34.0625 C-46.49877295 33.46072427 -43.31199716 31.84450314 -39.48046875 29.68359375 C-38.88825027 29.35206802 -38.2960318 29.0205423 -37.68586731 28.67897034 C-35.8077502 27.62567461 -33.93512505 26.56302337 -32.0625 25.5 C-30.78485704 24.78127524 -29.50686565 24.06316951 -28.22851562 23.34570312 C-25.10661189 21.59178251 -21.98956024 19.82943532 -18.875 18.0625 C-20.71546111 13.85201114 -22.58231197 12.79608555 -26.875 11.0625 C-34.74237453 8.83911155 -41.02265811 11.4163415 -47.10546875 16.359375 Z " fill="#006E32" transform="translate(272.875,1035.9375)"/>
<path d="M0 0 C12.66999124 9.21453908 22.38473796 22.36780756 24.87890625 38.09375 C27.0448459 54.98073707 24.71361167 70.43761423 14.56640625 84.46875 C4.08534743 97.61331222 -8.37175171 104.50066348 -24.80859375 107.84375 C-42.11885992 109.15018518 -58.97267479 104.88731641 -72.62109375 93.78125 C-83.93513683 82.76691667 -91.23095088 68.43957939 -91.5012207 52.58325195 C-91.48303756 43.08905319 -90.89188684 34.95885958 -87.12109375 26.09375 C-86.79367188 25.24039063 -86.46625 24.38703125 -86.12890625 23.5078125 C-80.02272348 9.37890785 -67.62068565 0.43615366 -54.08984375 -5.828125 C-36.23047684 -12.31389509 -16.0326175 -10.07642538 0 0 Z " fill="#019796" transform="translate(201.12109375,680.90625)"/>
<path d="M0 0 C12.66999124 9.21453908 22.38473796 22.36780756 24.87890625 38.09375 C27.0448459 54.98073707 24.71361167 70.43761423 14.56640625 84.46875 C4.08534743 97.61331222 -8.37175171 104.50066348 -24.80859375 107.84375 C-42.11885992 109.15018518 -58.97267479 104.88731641 -72.62109375 93.78125 C-83.93513683 82.76691667 -91.23095088 68.43957939 -91.5012207 52.58325195 C-91.48303756 43.08905319 -90.89188684 34.95885958 -87.12109375 26.09375 C-86.79367187 25.24039063 -86.46625 24.38703125 -86.12890625 23.5078125 C-80.02272348 9.37890785 -67.62068565 0.43615366 -54.08984375 -5.828125 C-36.23047684 -12.31389509 -16.0326175 -10.07642538 0 0 Z " fill="#019796" transform="translate(1319.12109375,680.90625)"/>
<path d="M0 0 C6.620625 1.9490625 6.620625 1.9490625 13.375 3.9375 C14.76638184 4.34605225 16.15776367 4.75460449 17.59130859 5.17553711 C18.68266113 5.4978833 19.77401367 5.82022949 20.8984375 6.15234375 C22.01911621 6.48226318 23.13979492 6.81218262 24.29443359 7.15209961 C27 8 27 8 29 9 C29.16829526 15.27814497 28.54066563 21.17843451 27.5625 27.375 C27.42779297 28.27605469 27.29308594 29.17710938 27.15429688 30.10546875 C26.13685403 36.72629194 26.13685403 36.72629194 25 39 C27.31 39.66 29.62 40.32 32 41 C32.60328125 39.91460938 33.2065625 38.82921875 33.828125 37.7109375 C34.63528777 36.26555301 35.44258668 34.82024454 36.25 33.375 C36.64574219 32.66214844 37.04148437 31.94929688 37.44921875 31.21484375 C39.80145209 27.0116727 42.27052278 22.96901045 45 19 C50.75938555 19.91725443 55.20131743 22.5781446 60.25 25.375 C61.17296875 25.87 62.0959375 26.365 63.046875 26.875 C63.9234375 27.35710937 64.8 27.83921875 65.703125 28.3359375 C66.50395508 28.77470215 67.30478516 29.2134668 68.12988281 29.66552734 C70 31 70 31 71 34 C70.1105957 36.21044922 70.1105957 36.21044922 68.67578125 38.8046875 C68.14799072 39.76947021 67.6202002 40.73425293 67.07641602 41.72827148 C66.20327759 43.2859021 66.20327759 43.2859021 65.3125 44.875 C64.71816162 45.95273682 64.12382324 47.03047363 63.51147461 48.14086914 C58.80059889 56.65295579 53.98202574 65.10357082 49.12890625 73.53515625 C44.93022653 80.84326748 40.82836737 88.2056425 36.71899414 95.56420898 C33.8371233 100.72389587 30.94459678 105.87582424 28 111 C10.30784175 110.54208532 -9.42940691 101.51236468 -22.046875 89.1953125 C-29.23736543 81.11320126 -31.4940257 73.31715105 -31.3125 62.5390625 C-30.45503695 52.82829349 -25.23585855 44.68002302 -18.125 38.1875 C-12.20444528 34.0431117 -7.20294202 33.02899172 0 32 C0 21.44 0 10.88 0 0 Z M3 60 C0.15450672 63.21030011 -0.8818972 65.26513816 -1.5625 69.5 C-0.83262232 74.04146109 0.62244863 75.91614875 4 79 C5.98 79.33 7.96 79.66 10 80 C13.63 73.73 17.26 67.46 21 61 C15.90661177 55.90661177 8.79977412 56.36092604 3 60 Z " fill="#006E32" transform="translate(433,1198)"/>
<path d="M0 0 C16.58998169 -0.58725599 35.36661608 8.14058342 47.87890625 18.859375 C56.07472062 27.13065727 59.47145302 35.10458333 59.50634766 46.74194336 C59.30444651 53.81090631 56.89799849 59.12605758 53 65 C52.54367187 65.69867188 52.08734375 66.39734375 51.6171875 67.1171875 C47.88779933 72.08260147 42.85561352 75.06147952 37 77 C32.545 77.495 32.545 77.495 28 78 C28.33 88.56 28.66 99.12 29 110 C17.73889711 107.74777942 17.73889711 107.74777942 13.90234375 106.52734375 C13.08185547 106.26759766 12.26136719 106.00785156 11.41601562 105.74023438 C10.59810547 105.47533203 9.78019531 105.21042969 8.9375 104.9375 C7.65842773 104.5343457 7.65842773 104.5343457 6.35351562 104.12304688 C0.13660897 102.13660897 0.13660897 102.13660897 -1 101 C-0.76897864 91.33264465 0.8290235 81.59518606 2 72 C-0.97 71.01 -0.97 71.01 -4 70 C-7.96 76.93 -11.92 83.86 -16 91 C-20.269122 91 -21.74144751 90.33789466 -25.421875 88.375 C-26.44667969 87.83359375 -27.47148438 87.2921875 -28.52734375 86.734375 C-30.12255859 85.87585938 -30.12255859 85.87585938 -31.75 85 C-33.36841797 84.14148438 -33.36841797 84.14148438 -35.01953125 83.265625 C-37.68367795 81.85103383 -40.34353211 80.4289441 -43 79 C-41.71376313 74.80686005 -40.12599272 71.13817128 -37.98046875 67.31640625 C-37.37702637 66.23584961 -36.77358398 65.15529297 -36.15185547 64.04199219 C-35.50361816 62.89375977 -34.85538086 61.74552734 -34.1875 60.5625 C-33.50886781 59.35211754 -32.83065088 58.14150218 -32.15283203 56.93066406 C-30.43357897 53.8628128 -28.70796901 50.79859775 -26.97955322 47.73590088 C-26.06283712 46.11135588 -25.14734038 44.48612298 -24.23193359 42.86083984 C-21.04664911 37.20613894 -17.85103493 31.5573628 -14.64990234 25.91162109 C-11.65771994 20.63124712 -8.67317832 15.34655333 -5.6875 10.0625 C-4.58727033 8.11586804 -3.48701291 6.16925176 -2.38671875 4.22265625 C-1.92483154 3.40547119 -1.46294434 2.58828613 -0.98706055 1.74633789 C-0.49846558 0.88190063 -0.49846558 0.88190063 0 0 Z M19 30 C17.40295762 32.36874756 15.9350121 34.72322203 14.5 37.1875 C14.09652344 37.86103516 13.69304688 38.53457031 13.27734375 39.22851562 C11.20474311 42.73415202 9.37566868 46.14962298 8 50 C12.53860607 52.65674502 15.7417577 53.65728029 21 53 C25.3998569 51.05390945 27.32642655 49.00581513 29.0625 44.625 C29.98350261 41.28636553 30.03641785 40.12867642 29.0625 36.6875 C26.69262902 33.59948629 24.39627199 31.87878876 21 30 C20.34 30 19.68 30 19 30 Z " fill="#006E32" transform="translate(993,152)"/>
<path d="M0 0 C1.70172267 2.00669089 3.29551 4.02489907 4.875 6.125 C8.84232166 11.29464071 12.91654818 16.32810043 17.1875 21.25 C21.16248064 25.84208082 25.04450689 30.48115246 28.8125 35.24609375 C31.66072371 38.83180396 34.54819193 42.38486201 37.4375 45.9375 C37.99751709 46.62618164 38.55753418 47.31486328 39.13452148 48.02441406 C42.41891662 52.06129349 45.70690263 56.09521641 49 60.125 C49.69996094 60.98222656 50.39992188 61.83945313 51.12109375 62.72265625 C52.74502208 64.69095192 54.39778567 66.62883461 56.0625 68.5625 C58 71 58 71 58 73 C55.84448242 74.48046875 55.84448242 74.48046875 52.85546875 76.1875 C51.78619141 76.80367188 50.71691406 77.41984375 49.61523438 78.0546875 C47.91850586 79.01761719 47.91850586 79.01761719 46.1875 80 C43.97229516 81.27020381 41.75743573 82.54101025 39.54296875 83.8125 C38.0583313 84.65748047 38.0583313 84.65748047 36.54370117 85.51953125 C34.65793763 86.61707133 32.81545259 87.78969827 31 89 C28.02183925 88.86300461 27.12215537 88.13134185 25.078125 85.93359375 C24.47484375 85.10988281 23.8715625 84.28617187 23.25 83.4375 C22.63640625 82.61121094 22.0228125 81.78492188 21.390625 80.93359375 C20.93171875 80.29550781 20.4728125 79.65742188 20 79 C16.86773585 79.55720761 14.08786062 80.25449423 11.1875 81.5625 C10.135625 82.036875 9.08375 82.51125 8 83 C8.495 90.425 8.495 90.425 9 98 C4.7838092 99.4283526 0.56688112 100.85390875 -3.65258789 102.27246094 C-5.08770643 102.75586246 -6.52228229 103.24087817 -7.95629883 103.72753906 C-10.01763614 104.42678121 -12.08085542 105.12019477 -14.14453125 105.8125 C-15.38565674 106.23144531 -16.62678223 106.65039062 -17.90551758 107.08203125 C-21 108 -21 108 -24 108 C-26.49950174 89.57683231 -28.72697359 71.12452595 -30.83905029 52.65316772 C-31.11230106 50.26564273 -31.38707341 47.87829137 -31.66339111 45.49111938 C-32.05637424 42.08965316 -32.44313806 38.6875357 -32.828125 35.28515625 C-32.94668854 34.26536682 -33.06525208 33.24557739 -33.18740845 32.19488525 C-33.79473227 26.75546545 -34.12167079 21.47315748 -34 16 C-29.48187768 13.71626417 -24.9611797 11.43774196 -20.43798828 9.1640625 C-18.8988525 8.38945838 -17.360437 7.61342138 -15.82275391 6.8359375 C-13.61547549 5.72020167 -11.40567846 4.6096039 -9.1953125 3.5 C-8.50567413 3.15001953 -7.81603577 2.80003906 -7.10549927 2.43945312 C-2.22774341 0 -2.22774341 0 0 0 Z M-3 43 C-2 45 -2 45 -2 45 Z M-2 45 C-1.54775239 50.91492272 -0.8417395 56.35199888 1 62 C3.31 61.01 5.62 60.02 8 59 C5.2167907 53.56385928 2.59216906 49.06734974 -2 45 Z " fill="#D28B00" transform="translate(492,135)"/>
<path d="M0 0 C2.32511776 3.48767664 2.61464409 6.36849838 3.05322266 10.41796875 C3.14129684 11.17126968 3.22937103 11.92457062 3.32011414 12.70069885 C3.60956415 15.19544002 3.88708859 17.69134522 4.1640625 20.1875 C4.3624495 21.92812115 4.56138133 23.66868029 4.76083374 25.40917969 C5.17779162 29.06372364 5.58902017 32.7188539 5.99609375 36.37451172 C6.51533183 41.03450408 7.04718745 45.69294633 7.58326149 50.35102844 C7.99629247 53.95042159 8.4031882 57.55048822 8.80823898 61.15078735 C9.00189063 62.8667828 9.19723279 64.58258842 9.39436722 66.29818726 C10.41594714 75.22345883 11.34048676 83.99757356 11 93 C9.91114502 93.52170776 9.91114502 93.52170776 8.80029297 94.05395508 C5.49161283 95.63961745 2.18330326 97.22605148 -1.125 98.8125 C-2.26710938 99.35970703 -3.40921875 99.90691406 -4.5859375 100.47070312 C-5.69453125 101.00244141 -6.803125 101.53417969 -7.9453125 102.08203125 C-8.96125488 102.56905518 -9.97719727 103.0560791 -11.02392578 103.55786133 C-13.11282485 104.57009487 -15.18711246 105.61277512 -17.24975586 106.67749023 C-20 108 -20 108 -22.05859375 108.078125 C-25.17209752 106.34909675 -26.98968518 103.56438219 -29.0625 100.75 C-30.04078526 99.46188046 -31.02131026 98.17545928 -32.00390625 96.890625 C-32.50164551 96.23771484 -32.99938477 95.58480469 -33.51220703 94.91210938 C-35.75351427 92.03158455 -38.1190292 89.26526034 -40.5 86.5 C-44.26498771 82.10751434 -47.89207618 77.63387965 -51.4375 73.0625 C-55.229187 68.17746273 -59.14218123 63.42718087 -63.1875 58.75 C-69.51983063 51.42833774 -75.68689735 44.10947247 -81 36 C-77.96331304 34.12063387 -74.92278597 32.24800577 -71.875 30.38671875 C-69.20772055 28.75451316 -66.56775724 27.08568084 -63.9375 25.39453125 C-62.60432647 24.55443386 -61.27099655 23.71458457 -59.9375 22.875 C-59.30706787 22.46064697 -58.67663574 22.04629395 -58.02709961 21.61938477 C-53.60756966 18.87050025 -53.60756966 18.87050025 -50.80078125 19.46875 C-48.60749177 21.33375971 -46.96714447 23.31345937 -45.25 25.625 C-44.63640625 26.44226562 -44.0228125 27.25953125 -43.390625 28.1015625 C-42.70226562 29.04128906 -42.70226562 29.04128906 -42 30 C-40.84371094 29.566875 -40.84371094 29.566875 -39.6640625 29.125 C-38.66117188 28.75375 -37.65828125 28.3825 -36.625 28 C-35.62726562 27.62875 -34.62953125 27.2575 -33.6015625 26.875 C-31 26 -31 26 -29 26 C-29.2165625 25.09636719 -29.433125 24.19273438 -29.65625 23.26171875 C-29.9346875 22.08222656 -30.213125 20.90273437 -30.5 19.6875 C-30.7784375 18.51574219 -31.056875 17.34398437 -31.34375 16.13671875 C-32 13 -32 13 -32 10 C-21.44 6.7 -10.88 3.4 0 0 Z M-31 49 C-29.31029911 52.66398299 -27.12699789 55.90832572 -24.875 59.25 C-23.78832031 60.86648438 -23.78832031 60.86648438 -22.6796875 62.515625 C-22.12539063 63.33546875 -21.57109375 64.1553125 -21 65 C-19.70867215 61.12601645 -20.58886428 58.18011214 -21.4375 54.3125 C-21.58509766 53.61060547 -21.73269531 52.90871094 -21.88476562 52.18554688 C-22.2495932 50.45555806 -22.62388689 48.72757037 -23 47 C-26.20395416 47 -28.09399739 47.74335022 -31 49 Z " fill="#D28B00" transform="translate(985,1217)"/>
<path d="M0 0 C1.35382149 1.48738235 2.63139886 3.04430551 3.875 4.625 C7.50128705 9.16077383 11.20272685 13.60655557 15 18 C19.32013757 23.01244555 23.55099567 28.08540335 27.72265625 33.22265625 C30.28204163 36.34396501 32.88598963 39.42445484 35.5 42.5 C40.40610367 48.27516043 45.23270782 54.10932609 50 60 C50.76441406 60.825 51.52882813 61.65 52.31640625 62.5 C54 65 54 65 53.9609375 67.5234375 C49.02641659 80.2408613 34.64209829 91.70882207 23 98 C22.23558594 98.433125 21.47117187 98.86625 20.68359375 99.3125 C12.10371658 103.4935569 1.73802256 103.36713481 -7.41015625 101.1875 C-19.55515043 96.67426345 -27.98848319 87.23350261 -34 76 C-39.21275266 63.9399875 -39.52011381 52.51342509 -35.2578125 40.12890625 C-30.78181071 28.99450428 -14.05280456 0 0 0 Z M-8 40 C-11.61411769 46.09882361 -13.11799161 50.89609499 -12 58 C-9.54198734 64.04261446 -5.49022248 68.44632872 0 72 C4.2217647 73.54956158 7.30301163 73.28626308 11.5 71.5625 C12.325 71.046875 13.15 70.53125 14 70 C12.58611188 66.96828525 10.91503118 64.37980573 8.91796875 61.69921875 C8.31533203 60.88646484 7.71269531 60.07371094 7.09179688 59.23632812 C6.46337891 58.39521484 5.83496094 57.55410156 5.1875 56.6875 C3.95134988 55.02509122 2.71566503 53.36233637 1.48046875 51.69921875 C0.88927246 50.90563965 0.29807617 50.11206055 -0.31103516 49.29443359 C-1.8668053 47.18094302 -3.38186145 45.0444047 -4.88671875 42.89453125 C-5.93279297 41.46173828 -5.93279297 41.46173828 -7 40 C-7.33 40 -7.66 40 -8 40 Z " fill="#976813" transform="translate(1117,1117)"/>
<path d="M0 0 C10.46461929 7.78666553 18.59904835 18.41255496 20.984375 31.4765625 C21.93671773 41.45109947 21.12164313 50.2163448 16.984375 59.4765625 C16.58347656 60.37632812 16.18257813 61.27609375 15.76953125 62.203125 C9.82034125 74.17048111 0.21465899 84.05162274 -10.015625 92.4765625 C-11.02302734 93.36988281 -11.02302734 93.36988281 -12.05078125 94.28125 C-14.015625 95.4765625 -14.015625 95.4765625 -16.01171875 95.4609375 C-18.83029585 94.07637331 -20.16012551 92.20741417 -22.078125 89.7265625 C-22.86316406 88.73140625 -23.64820313 87.73625 -24.45703125 86.7109375 C-24.87227051 86.18177734 -25.28750977 85.65261719 -25.71533203 85.10742188 C-27.9188907 82.34366447 -30.22025817 79.66410457 -32.515625 76.9765625 C-35.87110886 73.03094435 -39.18787004 69.06010884 -42.453125 65.0390625 C-45.90836939 60.79263514 -49.44268068 56.62366989 -53.015625 52.4765625 C-58.11489252 46.55600705 -63.1400488 40.58397217 -68.015625 34.4765625 C-68.63308594 33.81914062 -69.25054687 33.16171875 -69.88671875 32.484375 C-71.015625 30.4765625 -71.015625 30.4765625 -70.37890625 27.9765625 C-62.34807848 13.24954309 -47.7791453 0.00577929 -31.953125 -5.4609375 C-20.55204694 -8.39785521 -9.79924292 -6.37384385 0 0 Z M-31.015625 27.4765625 C-30.62818115 27.96946777 -30.2407373 28.46237305 -29.84155273 28.97021484 C-28.04270592 31.26189274 -26.24728471 33.55621308 -24.453125 35.8515625 C-23.81213867 36.67124512 -23.17115234 37.49092773 -22.51074219 38.33544922 C-18.55838326 43.41604889 -14.77104893 48.53140318 -11.25 53.921875 C-10.84265625 54.43492187 -10.4353125 54.94796875 -10.015625 55.4765625 C-9.355625 55.4765625 -8.695625 55.4765625 -8.015625 55.4765625 C-4.71867739 49.59939502 -3.17756714 44.64245554 -5.015625 38.0390625 C-7.09736655 32.43658753 -10.83399019 27.44187817 -15.95703125 24.27734375 C-18.25474535 23.38354604 -20.05406128 23.14371256 -22.515625 23.1015625 C-23.64484375 23.05902344 -23.64484375 23.05902344 -24.796875 23.015625 C-27.81269229 23.64215042 -29.03366146 25.19730442 -31.015625 27.4765625 Z " fill="#976813" transform="translate(354.015625,247.5234375)"/>
<path d="M0 0 C11.02889612 3.71164773 20.21176699 10.90440221 25.5625 21.25 C30.61330865 32.06702928 30.00616808 42.82161507 26.1875 53.97265625 C19.88922097 70.02912418 7.93900023 81.76475107 -7.60546875 89.03515625 C-18.15136169 93.28448016 -29.49082088 93.40227031 -40 89 C-49.75962998 84.22862534 -55.89193161 78.06584296 -60 68 C-63.28105419 57.60999506 -60.28603512 46.44437457 -55.4921875 37.04296875 C-51.7070411 30.74906253 -47.06809676 24.26224911 -41 20 C-37.73486903 20.42521842 -35.46882674 21.81602912 -32.76171875 23.625 C-31.5411377 24.43191284 -31.5411377 24.43191284 -30.29589844 25.25512695 C-29.43512695 25.83093506 -28.57435547 26.40674316 -27.6875 27 C-19.25450202 32.56888832 -10.71676637 37.88880518 -2 43 C-2.26585684 37.01822117 -2.75988805 32.55812035 -7 28 C-14.01854314 23.36302992 -22.87281151 22.41342408 -31 21 C-26.67812416 15.90920146 -22.31804041 10.87194331 -17.75 6 C-16.84314453 4.96166016 -16.84314453 4.96166016 -15.91796875 3.90234375 C-10.8016553 -1.47031943 -7.08076223 -1.88820326 0 0 Z M-30 48 C-31.9738064 51.31599474 -33.02511183 53.34709242 -32.875 57.25 C-32.21799254 60.30584028 -32.21799254 60.30584028 -29 62 C-22.5502423 62.64497577 -19.360543 61.57369533 -14 58 C-21.2718857 51.32621644 -21.2718857 51.32621644 -30 48 Z " fill="#006E32" transform="translate(361,1138)"/>
<path d="M0 0 C7.97286994 5.94236925 15.20625052 12.88977567 17 23 C18.2732926 37.59389211 13.93410409 48.55920483 5 60 C2.4515135 62.80853615 -0.18750012 65.45678202 -3 68 C-6.63524382 66.68400561 -9.51349825 65.08422259 -12.62890625 62.8046875 C-17.93047633 59.01209388 -23.38856048 55.54216589 -28.9375 52.125 C-29.86884766 51.54492188 -30.80019531 50.96484375 -31.75976562 50.3671875 C-32.65244141 49.81546875 -33.54511719 49.26375 -34.46484375 48.6953125 C-35.265271 48.20047363 -36.06569824 47.70563477 -36.89038086 47.19580078 C-39.07508944 45.86790862 -39.07508944 45.86790862 -42 45 C-40.91026213 53.41814361 -40.91026213 53.41814361 -36 60 C-28.83570779 63.80991262 -20.88337425 65.36895705 -13 67 C-16.78767689 71.54521227 -20.68022036 75.88004239 -24.9375 79.9921875 C-26.31258103 81.33080805 -27.64712533 82.71235974 -28.9375 84.1328125 C-33.57536785 88.90158791 -33.57536785 88.90158791 -37.375 89.1640625 C-40.08516486 88.71519145 -42.43628393 87.98574493 -45 87 C-45.82757812 86.68417969 -46.65515625 86.36835938 -47.5078125 86.04296875 C-57.97253362 81.40109402 -66.28572523 73.45052519 -71 63 C-74.82720485 51.81564409 -73.11552201 40.39936476 -68.59375 29.66015625 C-60.43181806 13.47104124 -47.33851705 2.17881113 -30.18359375 -3.61328125 C-20.31785912 -5.36052227 -8.77076483 -5.13343669 0 0 Z M-29 29 C-29 29.66 -29 30.32 -29 31 C-26.44068069 33.09344401 -26.44068069 33.09344401 -23.25 35.1875 C-22.18265625 35.92355469 -21.1153125 36.65960938 -20.015625 37.41796875 C-17.22429922 39.21674847 -17.22429922 39.21674847 -14.6875 38.84765625 C-12.29855402 37.64765329 -11.83813522 36.51440567 -11 34 C-10.41666667 31.5 -10.41666667 31.5 -11 29 C-13.31984807 26.54758919 -14.9923978 25.21785994 -18.3125 24.5 C-22.25542438 25.23356733 -25.51590212 27.06342947 -29 29 Z " fill="#006E32" transform="translate(1137,235)"/>
<path d="M0 0 C10.23754009 8.77066868 16.04653778 18.49436979 17.75 32.03515625 C18.2294005 44.1320289 14.2074421 54.8562976 6.3671875 63.9921875 C-1.71861855 72.65010247 -12.76285384 76.85751205 -24.4453125 77.3046875 C-34.76062228 77.03281112 -43.21827598 73.82481448 -51.6328125 67.9921875 C-52.5403125 67.3734375 -53.4478125 66.7546875 -54.3828125 66.1171875 C-62.08765814 58.84038884 -68.37308256 48.40984438 -69.00390625 37.671875 C-69.35710238 23.94137538 -67.01115669 13.95643907 -57.87109375 3.25 C-41.60788776 -13.15511879 -18.26015047 -13.92539665 0 0 Z M-36.6328125 24.9921875 C-38.60063493 28.4686738 -39.61191702 30.98920466 -39.6953125 34.9921875 C-37.97075672 39.86152148 -35.17182525 43.51319995 -30.66796875 46.13671875 C-26.41505379 47.92441237 -23.10438156 48.54751587 -18.6328125 46.9921875 C-15.16564884 44.89880567 -13.19196411 43.70691911 -11.9296875 39.8359375 C-11.37291075 36.20478479 -11.36263259 33.69147668 -12.6953125 30.2421875 C-15.81738293 26.61655732 -19.64239206 22.29769214 -24.62109375 21.7890625 C-31.16546851 21.65223013 -31.16546851 21.65223013 -36.6328125 24.9921875 Z " fill="#976813" transform="translate(250.6328125,383.0078125)"/>
<path d="M0 0 C11.30103422 -0.65751472 22.19618689 4.39697764 30.8984375 11.25 C40.23616719 19.67989486 45.85680653 30.90944527 47.11328125 43.3828125 C47.66473822 55.69133218 42.94069038 66.79857627 34.8984375 75.9375 C25.51777849 84.81223583 13.55979006 87.76082231 1.078125 87.5234375 C-10.84949519 86.97610009 -20.87214611 81.01669959 -28.9140625 72.4375 C-38.12827375 61.22397877 -40.44996469 48.34417391 -39.1015625 34.25 C-37.53014969 26.77686067 -34.10897545 20.93474416 -29.1015625 15.25 C-28.58851563 14.64414062 -28.07546875 14.03828125 -27.546875 13.4140625 C-20.14474239 5.30359184 -10.72716289 1.27609373 0 0 Z M-8.1015625 37.25 C-9.83529061 40.18979983 -10.12159012 41.77935093 -9.9765625 45.1875 C-8.54144465 50.21041249 -6.24525181 53.77612383 -1.8515625 56.625 C2.23206613 58.71939323 5.35517234 58.76294929 9.8984375 58.25 C13.76787767 56.78821149 14.71883678 55.56729461 16.7734375 51.9375 C17.98681007 47.96033436 18.15118422 46.17527306 16.8984375 42.25 C14.34485636 37.52114604 11.74514815 34.62763164 6.8984375 32.25 C0.20763274 30.9646928 -3.55967725 32.265004 -8.1015625 37.25 Z " fill="#976813" transform="translate(274.1015625,299.75)"/>
<path d="M0 0 C9.72188984 9.50584785 14.14499456 20.32412462 14.3125 33.8125 C14.15174438 46.72519508 9.81221041 55.39437211 0.96875 64.6875 C-8.13830166 73.34666388 -18.8627186 76.36256324 -31.16015625 76.08984375 C-43.59974547 75.37348987 -53.13233155 68.1608833 -61.4375 59.5 C-70.52879333 48.92071055 -71.92004066 37.34757109 -71.36669922 23.93798828 C-70.43113493 12.51492671 -63.1240985 3.77280801 -54.75390625 -3.421875 C-36.67863606 -16.29740993 -16.92252858 -11.94531429 0 0 Z M-41.5625 23.5 C-42.95525846 28.51393047 -42.86882475 32.3021849 -40.6875 36.9375 C-37.06075283 41.01759056 -33.43389574 44.33878987 -27.84375 45.046875 C-24.52922441 44.89219714 -22.14700235 44.53856963 -19.54296875 42.3984375 C-17.00569163 39.42975015 -15.31460805 36.86855082 -14.875 33 C-15.37060759 27.84568108 -17.89759123 24.94068502 -21.625 21.5 C-28.91578664 16.52092619 -35.64005331 15.96234058 -41.5625 23.5 Z " fill="#976813" transform="translate(1205.1875,1084.25)"/>
<path d="M0 0 C11.05912988 6.92123397 18.20654989 16.03059639 21.578125 28.64453125 C23.99952455 39.43076563 22.3599068 50.17491821 16.953125 59.83203125 C10.38962384 69.85424012 2.09402898 76.4854837 -9.33984375 80.28125 C-21.633194 82.42624357 -33.28673083 80.30215378 -43.671875 73.39453125 C-54.17664163 65.43178347 -61.8508731 56.15155762 -64.17578125 42.77734375 C-65.51280412 31.18981225 -63.07216041 20.86142133 -56.44140625 11.1875 C-42.59608787 -6.24635352 -19.42295563 -10.87058968 0 0 Z M-32.421875 26.64453125 C-34.79864686 30.05123758 -35.67562544 32.61891582 -35.359375 36.70703125 C-34.50372763 41.38635278 -32.60563572 44.09317183 -28.6953125 46.87109375 C-24.25416526 49.47208437 -20.56599444 50.23413202 -15.47265625 49.3984375 C-11.31550928 47.87019109 -9.35689954 44.51458032 -7.421875 40.64453125 C-7.00183956 36.94821934 -7.27352332 34.94741593 -8.921875 31.58203125 C-12.399222 27.49614852 -16.15119097 24.28300732 -21.54296875 23.23046875 C-25.96186982 23.04669593 -29.07412569 23.77503184 -32.421875 26.64453125 Z " fill="#976813" transform="translate(1250.421875,1006.35546875)"/>
<path d="M0 0 C10.63872969 7.30834474 16.58634415 19.22951253 19.046875 31.6015625 C20.07615301 37.93877646 19.95193129 44.2717764 19.62109375 50.66796875 C16.01979754 52.00914728 12.41461516 53.33955265 8.80859375 54.66796875 C7.78443359 55.04953125 6.76027344 55.43109375 5.70507812 55.82421875 C4.23071289 56.365625 4.23071289 56.365625 2.7265625 56.91796875 C1.82059326 57.253125 0.91462402 57.58828125 -0.01879883 57.93359375 C-2.37890625 58.66796875 -2.37890625 58.66796875 -5.37890625 58.66796875 C-5.476875 57.64058594 -5.57484375 56.61320313 -5.67578125 55.5546875 C-7.28809821 39.86389445 -7.28809821 39.86389445 -15.37890625 26.66796875 C-16.69890625 26.99796875 -18.01890625 27.32796875 -19.37890625 27.66796875 C-19.00038245 32.02099245 -18.17049203 35.26678713 -16.31640625 39.23046875 C-13.42061259 46.17825207 -13.08561348 53.84681818 -15.0390625 61.12890625 C-18.16593035 68.19481542 -24.55456001 73.10235333 -31.59765625 75.97265625 C-40.04993017 78.08572473 -50.16049836 77.91417456 -58.07421875 74.1171875 C-71.30064861 65.80022906 -77.60353207 53.4245331 -81.9362793 38.78466797 C-82.42705171 36.43773095 -82.4766301 34.31319079 -82.44140625 31.91796875 C-82.43238281 31.11875 -82.42335937 30.31953125 -82.4140625 29.49609375 C-82.40246094 28.8928125 -82.39085937 28.28953125 -82.37890625 27.66796875 C-78.422572 26.16265785 -74.46352258 24.66462282 -70.50390625 23.16796875 C-69.37597656 22.73871094 -68.24804688 22.30945313 -67.0859375 21.8671875 C-65.47138672 21.25810547 -65.47138672 21.25810547 -63.82421875 20.63671875 C-62.82922363 20.25966797 -61.83422852 19.88261719 -60.80908203 19.49414062 C-58.37890625 18.66796875 -58.37890625 18.66796875 -56.37890625 18.66796875 C-56.14816406 19.63476562 -55.91742188 20.6015625 -55.6796875 21.59765625 C-52.64203696 34.67379337 -52.64203696 34.67379337 -45.37890625 45.66796875 C-44.05890625 45.66796875 -42.73890625 45.66796875 -41.37890625 45.66796875 C-41.92584748 41.02242994 -43.24480155 37.7130676 -45.44140625 33.60546875 C-48.98444121 26.12667689 -49.83557806 19.38992794 -47.78125 11.3203125 C-44.96194283 4.51463611 -39.00166596 0.32088334 -32.4765625 -2.65625 C-20.62901896 -7.00187408 -11.03026124 -6.17622181 0 0 Z " fill="#006E32" transform="translate(224.37890625,954.33203125)"/>
<path d="M0 0 C0.28994872 9.13338455 -0.8258212 17.96301675 -2 27 C-2.56847656 26.80664062 -3.13695312 26.61328125 -3.72265625 26.4140625 C-4.49480469 26.15367188 -5.26695312 25.89328125 -6.0625 25.625 C-6.81660156 25.36976562 -7.57070313 25.11453125 -8.34765625 24.8515625 C-9.22292969 24.57054687 -10.09820313 24.28953125 -11 24 C-12.07507813 23.64035156 -13.15015625 23.28070312 -14.2578125 22.91015625 C-18.56032235 21.86372118 -22.41090913 21.73996728 -26.8125 21.8125 C-27.57498047 21.81314453 -28.33746094 21.81378906 -29.12304688 21.81445312 C-33.19338106 21.76409376 -33.19338106 21.76409376 -37 23 C-36.65213292 24.97536745 -36.65213292 24.97536745 -36 27 C-32.16388075 28.91805963 -27.26694916 28.67379862 -23.00390625 28.98632812 C-15.49414396 29.68997915 -9.09581118 31.9528374 -4.125 37.875 C-3.57070313 38.51179688 -3.01640625 39.14859375 -2.4453125 39.8046875 C2.0043486 46.56336192 1.67113629 54.21309816 1 62 C-0.69916547 69.75378671 -4.99336745 75.89192061 -11 81 C-25.71621957 90.3503055 -40.30425796 90.26378059 -56.8828125 86.8515625 C-60 86 -60 86 -63 84 C-63.26464844 82.15576172 -63.26464844 82.15576172 -63.109375 79.9296875 C-63.05910156 79.115 -63.00882813 78.3003125 -62.95703125 77.4609375 C-62.88871094 76.60757812 -62.82039062 75.75421875 -62.75 74.875 C-62.69714844 74.04484375 -62.64429688 73.2146875 -62.58984375 72.359375 C-62.24286471 67.21117429 -61.68495471 62.11354119 -61 57 C-53.46 57.91 -53.46 57.91 -50.125 58.5625 C-42.71566872 59.59980638 -36.15698593 59.12058842 -29 57 C-29.66 55.68 -30.32 54.36 -31 53 C-31.89138672 52.98598145 -31.89138672 52.98598145 -32.80078125 52.97167969 C-35.53464645 52.91747007 -38.26689199 52.83392722 -41 52.75 C-41.93457031 52.73582031 -42.86914062 52.72164062 -43.83203125 52.70703125 C-51.22403709 52.44856951 -56.58712039 50.93721694 -62.2421875 46.0703125 C-62.78101563 45.42835937 -63.31984375 44.78640625 -63.875 44.125 C-64.70644531 43.16980469 -64.70644531 43.16980469 -65.5546875 42.1953125 C-70.41005823 34.82039805 -69.85530367 25.60612676 -68.5703125 17.18359375 C-66.43857003 8.77505402 -61.58867413 2.38719788 -54.375 -2.375 C-36.99321573 -11.84162986 -16.8732882 -9.00436819 0 0 Z " fill="#D28B00" transform="translate(767,1283)"/>
<path d="M0 0 C10.47153047 7.22938354 16.71893132 18.92220979 20.15625 30.96484375 C20.87466588 35.27533906 20.96272853 39.35935892 20.78125 43.71484375 C17.89009245 44.92694417 14.99719531 46.13455793 12.1015625 47.3359375 C10.03083774 48.19589731 7.96265144 49.06202715 5.8984375 49.9375 C5.03476563 50.29714844 4.17109375 50.65679687 3.28125 51.02734375 C2.12109375 51.51654297 2.12109375 51.51654297 0.9375 52.015625 C-1.21875 52.71484375 -1.21875 52.71484375 -5.21875 52.71484375 C-5.43789062 51.67585938 -5.65703125 50.636875 -5.8828125 49.56640625 C-8.56931534 37.25568783 -8.56931534 37.25568783 -15.21875 26.71484375 C-17.312346 25.91348814 -17.312346 25.91348814 -19.21875 25.71484375 C-20.62568177 29.93563906 -18.65789344 32.27317124 -16.78125 36.02734375 C-13.25576958 43.54665308 -11.75928208 50.35991872 -13.21875 58.71484375 C-16.12871075 65.8045663 -21.08956521 70.44410926 -27.76171875 74.11328125 C-36.55349417 77.77543881 -46.48248029 78.36224191 -55.53125 75.21484375 C-66.07966902 70.25189906 -73.37489881 61.12268713 -77.50390625 50.3671875 C-80.61165119 40.66523107 -81.36850216 31.84807337 -81.21875 21.71484375 C-60.0835041 12.71484375 -60.0835041 12.71484375 -56.21875 12.71484375 C-56.13238281 13.71902344 -56.04601563 14.72320312 -55.95703125 15.7578125 C-54.91074115 26.43049598 -53.63409766 38.19474584 -45.21875 45.71484375 C-44.22875 45.38484375 -43.23875 45.05484375 -42.21875 44.71484375 C-41.945679 40.07946348 -42.65203098 37.2800409 -44.71875 33.15234375 C-47.85669526 25.95563168 -48.63694288 19.01765192 -46.58984375 11.36328125 C-43.52870824 4.25266154 -37.37018807 -0.56042176 -30.46875 -3.72265625 C-19.87131282 -7.47151994 -9.56624247 -5.54101016 0 0 Z " fill="#006E32" transform="translate(1291.21875,434.28515625)"/>
<path d="M0 0 C1 1 1 1 1.1875 4.9375 C1.12865984 12.99860247 -0.02504744 21.00887102 -1 29 C-1.59353271 28.8462793 -2.18706543 28.69255859 -2.79858398 28.53417969 C-8.49668054 27.11111893 -14.03273414 26.77993795 -19.875 26.75 C-20.61226318 26.74097656 -21.34952637 26.73195313 -22.10913086 26.72265625 C-25.88790164 26.74341635 -28.79668429 26.88681791 -32 29 C-32 30.32 -32 31.64 -32 33 C-30.73285156 32.96519531 -29.46570313 32.93039063 -28.16015625 32.89453125 C-26.46095089 32.86636763 -24.76173102 32.83907025 -23.0625 32.8125 C-22.23169922 32.78736328 -21.40089844 32.76222656 -20.54492188 32.73632812 C-11.47474585 32.63045058 -4.27198338 34.70714152 2.3359375 41.078125 C7.86304087 47.46154016 7.55085072 55.13253864 7.28515625 63.1484375 C6.71912165 70.7937816 4.395576 77.41698464 -1 83 C-12.01996103 91.95503526 -24.33150837 94.13352295 -38.20507812 93.34765625 C-46.43149502 92.32438427 -54.33064255 89.03043819 -62 86 C-61.03644647 66.99544419 -61.03644647 66.99544419 -60 59 C-56.71999401 59.52903322 -53.69232349 60.41619288 -50.5625 61.5 C-42.26540664 64.28836744 -32.53921887 65.57402291 -24 63 C-24.78130071 60.50447516 -24.78130071 60.50447516 -26 58 C-29.49158814 56.83613729 -32.44643145 56.8175504 -36.125 56.6875 C-44.0649362 56.26449404 -49.82971196 54.75677221 -55.875 49.5 C-56.57625 48.675 -57.2775 47.85 -58 47 C-58.556875 46.38125 -59.11375 45.7625 -59.6875 45.125 C-63.82496462 38.42624776 -64.08506394 30.06099165 -62.46484375 22.50390625 C-59.51965131 12.96019524 -53.30295909 5.565207 -44.58984375 0.63671875 C-31.53512147 -5.35668463 -13.37891269 -5.08293336 0 0 Z " fill="#D28B00" transform="translate(749,92)"/>
<path d="M0 0 C5.7247456 3.83491645 9.82710013 8.44591291 11.56640625 15.19921875 C12.61343267 21.69078253 11.05843379 26.05471265 7.27734375 31.46484375 C4.68123194 34.35485501 2.1397234 35.9334142 -1.25 37.8125 C-2.32765625 38.41707031 -3.4053125 39.02164063 -4.515625 39.64453125 C-5.33546875 40.09183594 -6.1553125 40.53914063 -7 41 C-4.1204024 45.57748509 -4.1204024 45.57748509 0 49 C1.98 46.525 1.98 46.525 4 44 C8.71370756 44.64985095 12.57686444 46.51561392 16.8125 48.5625 C17.50537109 48.89185547 18.19824219 49.22121094 18.91210938 49.56054688 C20.61044948 50.36872251 22.30555769 51.18368377 24 52 C22.68302856 55.79793279 21.08343619 58.35328268 18.375 61.3125 C17.74335937 62.00988281 17.11171875 62.70726562 16.4609375 63.42578125 C15.97882813 63.94527344 15.49671875 64.46476562 15 65 C15.40992188 65.45890625 15.81984375 65.9178125 16.2421875 66.390625 C16.78101563 67.00421875 17.31984375 67.6178125 17.875 68.25 C18.67550781 69.15492188 18.67550781 69.15492188 19.4921875 70.078125 C21 72 21 72 23 76 C14.585 80.95 14.585 80.95 6 86 C3.69 84.02 1.38 82.04 -1 80 C-4.71914282 78.76028573 -5.74337783 79.4434019 -9.3125 80.875 C-19.99274646 85.13518199 -32.87186412 85.86658245 -43.79296875 81.97265625 C-51.81717106 78.43632638 -58.48632643 73.2571329 -62 65 C-62.72711909 57.7288091 -61.07759125 52.86127497 -56.52734375 47.15234375 C-52.11477613 42.40596487 -46.84480992 38.78956837 -41 36 C-40.01 36 -39.02 36 -38 36 C-38.63228516 34.75283203 -38.63228516 34.75283203 -39.27734375 33.48046875 C-39.82519531 32.39378906 -40.37304688 31.30710938 -40.9375 30.1875 C-41.48277344 29.10855469 -42.02804687 28.02960938 -42.58984375 26.91796875 C-45.32596088 21.2562527 -46.06520373 15.972922 -44.421875 9.84375 C-41.94054701 3.97879293 -37.63596677 0.75224505 -32 -2 C-21.50378264 -5.58887057 -9.72809969 -5.71304764 0 0 Z M-20 13 C-22.19666303 14.77966683 -22.19666303 14.77966683 -22.23046875 17.09375 C-22.21628906 17.8878125 -22.20210937 18.681875 -22.1875 19.5 C-22.18105469 20.2940625 -22.17460938 21.088125 -22.16796875 21.90625 C-22.12675836 24.05836391 -22.12675836 24.05836391 -21 26 C-18.2556051 24.95902262 -17.0212861 24.02715813 -15.1875 21.6875 C-13.81270763 18.5761278 -13.99704099 17.19123321 -15 14 C-17.39719432 13.32041397 -17.39719432 13.32041397 -20 13 Z M-27.6640625 52.5390625 C-31.95248523 56.80387376 -31.95248523 56.80387376 -32.9375 62.5 C-32.628125 63.325 -32.31875 64.15 -32 65 C-28.71000718 65.41831404 -28.71000718 65.41831404 -25 65 C-22.06026719 62.64581624 -22.06026719 62.64581624 -20 60 C-21.65 57.03 -23.3 54.06 -25 51 C-26.25542217 50.88683408 -26.25542217 50.88683408 -27.6640625 52.5390625 Z " fill="#AEAEAE" transform="translate(847,107)"/>
<path d="M0 0 C2.20241266 1.05493715 3.79845613 2.31633294 5.609375 3.953125 C6.52976562 4.77490234 6.52976562 4.77490234 7.46875 5.61328125 C7.92765625 6.03480469 8.3865625 6.45632813 8.859375 6.890625 C9.75076172 6.49230469 9.75076172 6.49230469 10.66015625 6.0859375 C23.93851359 0.42766392 36.10390286 -0.62203977 49.859375 3.890625 C57.53342172 7.08912081 63.6067468 12.08138703 66.859375 19.890625 C67.8583728 26.07389558 67.12870659 30.91885945 63.46484375 36.01953125 C57.92528762 42.47560762 51.2323878 46.76596825 43.859375 50.890625 C44.2925 51.61765625 44.725625 52.3446875 45.171875 53.09375 C49.2457061 60.44927838 51.31184727 66.46378157 49.859375 74.890625 C47.00421462 80.93038733 42.2758377 84.68239365 36.359375 87.640625 C26.6523645 91.10741447 17.40249694 90.56855813 7.859375 86.890625 C1.6217365 83.54098092 -3.40017416 78.46170603 -6.140625 71.890625 C-7.06128097 66.38793506 -6.93339403 61.71744059 -4.703125 56.578125 C0.32106901 51.30884835 5.60475334 46.56476846 12.859375 44.890625 C10.879375 42.250625 8.899375 39.610625 6.859375 36.890625 C2.75396574 38.67980649 2.75396574 38.67980649 -0.140625 41.890625 C-9.050625 37.930625 -9.050625 37.930625 -18.140625 33.890625 C-18.140625 30.32845762 -17.4384349 29.66134022 -15.265625 26.953125 C-13.11119944 24.25228716 -11.71857463 22.04652426 -10.140625 18.890625 C-12.780625 16.250625 -15.420625 13.610625 -18.140625 10.890625 C-14.78201629 7.53201629 -12.15049138 5.45898317 -8.140625 3.078125 C-6.59375 2.14033203 -6.59375 2.14033203 -5.015625 1.18359375 C-2.140625 -0.109375 -2.140625 -0.109375 0 0 Z M28.109375 21.890625 C27.036875 22.550625 25.964375 23.210625 24.859375 23.890625 C26.509375 27.190625 28.159375 30.490625 29.859375 33.890625 C33.90925421 31.8656854 35.31021469 30.49461026 37.859375 26.890625 C38.189375 25.900625 38.519375 24.910625 38.859375 23.890625 C37.76139242 21.62100572 37.76139242 21.62100572 35.859375 19.890625 C31.9929614 19.890625 31.16918186 20.00766693 28.109375 21.890625 Z M24.859375 58.890625 C21.09357554 62.84471444 19.26102621 65.267508 18.859375 70.890625 C21.18791963 72.08900709 21.18791963 72.08900709 23.859375 72.890625 C27.08675828 71.20182084 27.08675828 71.20182084 27.671875 68.140625 C27.87906354 64.54935699 27.19922676 62.20084699 25.859375 58.890625 C25.529375 58.890625 25.199375 58.890625 24.859375 58.890625 Z " fill="#AEAEAE" transform="translate(602.140625,1268.109375)"/>
<path d="M0 0 C11.19559845 8.77580052 17.00710783 20.89693952 19.0625 34.8125 C19.124375 36.00875 19.18625 37.205 19.25 38.4375 C19.30027344 39.09234375 19.35054687 39.7471875 19.40234375 40.421875 C19.96493268 52.75382444 16.28349895 64.77732242 8.65625 74.4609375 C0.94776378 82.78755705 -10.43110841 88.69394773 -21.79394531 89.60058594 C-26.1212011 89.76203583 -30.42471697 89.65286679 -34.75 89.4375 C-35.61832448 85.3570446 -36.46719228 81.2727803 -37.3125 77.1875 C-37.55935547 76.02863281 -37.80621094 74.86976562 -38.06054688 73.67578125 C-38.40375977 72.00322266 -38.40375977 72.00322266 -38.75390625 70.296875 C-39.07597046 68.75725098 -39.07597046 68.75725098 -39.40454102 67.18652344 C-39.73656338 64.5444232 -39.60728404 62.92857461 -38.75 60.4375 C-37.95335937 60.26734375 -37.15671875 60.0971875 -36.3359375 59.921875 C-27.86369808 57.9841852 -21.82809262 55.87327848 -16.75 48.4375 C-14.05361674 43.81512869 -14.66446306 39.49147525 -15.75 34.4375 C-17.30530669 30.19220231 -17.30530669 30.19220231 -20.56640625 27.3046875 C-25.42298987 25.37595483 -30.53186849 25.65042108 -35.4140625 27.3828125 C-40.47645904 29.81459815 -44.54303212 32.75640311 -48.75 36.4375 C-49.41 36.4375 -50.07 36.4375 -50.75 36.4375 C-51.80155711 32.38508367 -52.83450815 28.32850894 -53.85058594 24.26708984 C-54.1987138 22.88657164 -54.55186551 21.50731009 -54.91015625 20.12939453 C-55.42478094 18.14665996 -55.92107419 16.16008439 -56.4140625 14.171875 C-56.86966553 12.38088379 -56.86966553 12.38088379 -57.33447266 10.55371094 C-57.77632094 7.24010844 -57.71063222 6.08641911 -55.75 3.4375 C-53.61288631 1.92262077 -51.59131223 0.63285848 -49.3125 -0.625 C-48.68287354 -0.97498047 -48.05324707 -1.32496094 -47.40454102 -1.68554688 C-31.76046849 -10.10089702 -14.9351562 -10.01848632 0 0 Z " fill="#D28B00" transform="translate(897.75,1263.5625)"/>
<path d="M0 0 C5.16994478 21.67930178 5.16994478 21.67930178 5 29 C4.2265625 29.15855469 3.453125 29.31710938 2.65625 29.48046875 C-4.53122873 31.09053515 -11.53621203 32.68793743 -16.33984375 38.66796875 C-19.0466529 43.03161482 -20.61036855 47.13827203 -19.5234375 52.234375 C-18.17978535 56.75258993 -16.8323365 60.03302981 -13 63 C-9.67325507 64.66337246 -6.58210689 64.597958 -3 64 C3.91635849 61.27009956 10.13143171 57.53480277 16 53 C18.00456055 60.35683898 19.98107313 67.72298308 21.8125 75.125 C22.06644531 76.13820313 22.32039062 77.15140625 22.58203125 78.1953125 C23.04806338 81.32251878 23.20499879 83.06191531 22 86 C19.81448152 87.63913886 17.89025138 88.87255266 15.5 90.125 C14.85708008 90.47046875 14.21416016 90.8159375 13.55175781 91.171875 C11.71311923 92.14064988 9.86132214 93.07573523 8 94 C7.24203125 94.38929688 6.4840625 94.77859375 5.703125 95.1796875 C-3.19986474 98.91894319 -16.02548485 98.3946051 -25.0625 95.4375 C-37.05452559 90.21397965 -45.02569317 80.85366735 -50 69 C-50.48339844 67.8553125 -50.48339844 67.8553125 -50.9765625 66.6875 C-54.90898255 55.22100416 -55.35033544 38.35844072 -50.25390625 27.2421875 C-49.63322266 26.13230469 -49.63322266 26.13230469 -49 25 C-48.57589844 24.21882813 -48.15179687 23.43765625 -47.71484375 22.6328125 C-40.78652336 11.1692406 -30.35717758 4.45809214 -17.5625 1.1875 C-11.65353117 -0.06166443 -6.01859849 -0.32565563 0 0 Z " fill="#D28B00" transform="translate(591,107)"/>
<path d="M0 0 C3.88889425 1.29629808 4.166712 2.6003561 6.08203125 6.16015625 C6.67701416 7.25150879 7.27199707 8.34286133 7.88500977 9.46728516 C8.19866486 10.05245911 8.51231995 10.63763306 8.83547974 11.24053955 C10.50115125 14.34670606 12.19774532 17.43594836 13.890625 20.52734375 C14.23525284 21.15854126 14.57988068 21.78973877 14.93495178 22.44006348 C18.1982419 28.40158468 21.61112368 34.27053047 25.0625 40.125 C30.66154392 49.64417339 36.10185344 59.2426623 41.47094727 68.89306641 C42.02065186 69.88097168 42.57035645 70.86887695 43.13671875 71.88671875 C43.61842529 72.75514404 44.10013184 73.62356934 44.59643555 74.51831055 C45.58504801 76.26630945 46.61695977 77.99016794 47.67895508 79.69458008 C49 82 49 82 49 84 C46.70288086 85.56542969 46.70288086 85.56542969 43.46484375 87.421875 C42.88273132 87.75886917 42.3006189 88.09586334 41.7008667 88.44306946 C40.44103395 89.17153831 39.17928025 89.89669271 37.91586304 90.618927 C34.5968906 92.51645543 31.29147297 94.4373454 27.984375 96.35546875 C27.31488327 96.74290756 26.64539154 97.13034637 25.95561218 97.52952576 C19.4781449 101.28491749 13.07441507 105.1549218 6.6875 109.0625 C5.21301392 109.96403809 5.21301392 109.96403809 3.70874023 110.88378906 C1.471222 112.25380566 -0.76514485 113.62564504 -3 115 C-5.37763919 112.82615846 -6.81858833 110.74774658 -8.26171875 107.875 C-8.65810547 107.08609375 -9.05449219 106.2971875 -9.46289062 105.484375 C-9.86701172 104.66453125 -10.27113281 103.8446875 -10.6875 103 C-11.10322266 102.18015625 -11.51894531 101.3603125 -11.94726562 100.515625 C-12.33978516 99.72671875 -12.73230469 98.9378125 -13.13671875 98.125 C-13.49467529 97.40570312 -13.85263184 96.68640625 -14.22143555 95.9453125 C-15 94 -15 94 -15 91 C-13.39526367 89.58959961 -13.39526367 89.58959961 -11.16796875 88.15234375 C-10.36939453 87.62962891 -9.57082031 87.10691406 -8.74804688 86.56835938 C-7.90306641 86.03017578 -7.05808594 85.49199219 -6.1875 84.9375 C-5.35412109 84.39544922 -4.52074219 83.85339844 -3.66210938 83.29492188 C-2.10876984 82.28556309 -0.55263579 81.28048336 1.00708008 80.28100586 C2.6823376 79.20418653 4.34298116 78.10467923 6 77 C5.34 75.35 4.68 73.7 4 72 C-0.6393176 73.63952583 -4.63855858 76.06871052 -8.8125 78.625 C-9.50537109 79.04523438 -10.19824219 79.46546875 -10.91210938 79.8984375 C-12.61010748 80.9289467 -14.30533614 81.96401681 -16 83 C-19.22216123 80.28503082 -20.89470407 76.76163942 -22.75 73.0625 C-23.24306641 72.13147461 -23.24306641 72.13147461 -23.74609375 71.18164062 C-26.05669277 66.60431471 -26.05669277 66.60431471 -25.80786133 63.9519043 C-24.77601218 61.45881456 -23.70245827 60.79832148 -21.40234375 59.421875 C-20.68369141 58.98359375 -19.96503906 58.5453125 -19.22460938 58.09375 C-18.09249023 57.42859375 -18.09249023 57.42859375 -16.9375 56.75 C-15.79958008 56.06164063 -15.79958008 56.06164063 -14.63867188 55.359375 C-12.7654589 54.22837849 -10.88611807 53.10929478 -9 52 C-10.34966763 48.39765841 -11.96428547 45.17720315 -13.93359375 41.875 C-14.50013672 40.92109375 -15.06667969 39.9671875 -15.65039062 38.984375 C-16.24013672 37.99953125 -16.82988281 37.0146875 -17.4375 36 C-18.02337891 35.01515625 -18.60925781 34.0303125 -19.21289062 33.015625 C-22.39181805 27.65413914 -22.39181805 27.65413914 -25.69165039 22.3671875 C-27 20 -27 20 -27 17 C-25.49047852 15.74487305 -25.49047852 15.74487305 -23.37890625 14.51171875 C-22.61199463 14.05506836 -21.84508301 13.59841797 -21.05493164 13.12792969 C-20.2324292 12.65258789 -19.40992676 12.17724609 -18.5625 11.6875 C-16.90527518 10.70867983 -15.2490137 9.72822669 -13.59375 8.74609375 C-12.79710937 8.2754248 -12.00046875 7.80475586 -11.1796875 7.31982422 C-7.87786498 5.32053518 -4.73713318 3.11377066 -1.62890625 0.828125 C-1.09136719 0.55484375 -0.55382813 0.2815625 0 0 Z " fill="#D28B00" transform="translate(1036,1180)"/>
<path d="M0 0 C3.63 7.26 7.26 14.52 11 22 C8.00600215 24.39519828 5.19898335 26.6153348 2.046875 28.7265625 C1.345625 29.2009375 0.644375 29.6753125 -0.078125 30.1640625 C-1.54041844 31.14769154 -3.0039867 32.12942772 -4.46875 33.109375 C-5.16484375 33.58117187 -5.8609375 34.05296875 -6.578125 34.5390625 C-7.21137695 34.96396973 -7.84462891 35.38887695 -8.49707031 35.82666016 C-10.15164006 36.94510216 -10.15164006 36.94510216 -11 39 C-10.01 40.32 -9.02 41.64 -8 43 C-7.47043701 42.66677734 -6.94087402 42.33355469 -6.39526367 41.99023438 C-3.99695871 40.48652897 -1.5923688 38.99318322 0.8125 37.5 C1.64587891 36.97535156 2.47925781 36.45070312 3.33789062 35.91015625 C4.14033203 35.41386719 4.94277344 34.91757813 5.76953125 34.40625 C6.50792236 33.94541016 7.24631348 33.48457031 8.00708008 33.00976562 C10 32 10 32 13 32 C17.455 41.405 17.455 41.405 22 51 C14.6875 55.8125 14.6875 55.8125 12.3972168 57.31176758 C11.79562744 57.71032959 11.19403809 58.1088916 10.57421875 58.51953125 C9.65515747 59.12438354 9.65515747 59.12438354 8.7175293 59.74145508 C6.68056925 61.16700804 6.68056925 61.16700804 4 64 C13.405 79.84 13.405 79.84 23 96 C17.82432177 100.14054258 12.49773388 103.72279852 6.9375 107.3125 C5.94427734 107.97056641 4.95105469 108.62863281 3.92773438 109.30664062 C2.97060547 109.92345703 2.01347656 110.54027344 1.02734375 111.17578125 C0.15843506 111.74208252 -0.71047363 112.30838379 -1.60571289 112.8918457 C-4 114 -4 114 -6.11547852 113.99902344 C-8.90194496 112.52186051 -9.70576745 110.60693736 -11.1796875 107.83984375 C-11.77144775 106.74849121 -12.36320801 105.65713867 -12.97290039 104.53271484 C-13.4372197 103.65495392 -13.4372197 103.65495392 -13.91091919 102.75946045 C-15.5564129 99.64973726 -17.24498283 96.56339226 -18.92578125 93.47265625 C-19.26731735 92.84145874 -19.60885345 92.21026123 -19.96073914 91.55993652 C-23.199029 85.58852253 -26.60975195 79.72479446 -30.0625 73.875 C-35.02936228 65.42545408 -39.89799043 56.92640402 -44.6875 48.375 C-45.2760376 47.32554199 -45.8645752 46.27608398 -46.47094727 45.19482422 C-49.08715778 40.50842162 -51.62240524 35.81319035 -54 31 C-52.90836548 30.33750244 -52.90836548 30.33750244 -51.79467773 29.66162109 C-50.19221198 28.68905026 -48.58975432 27.71646609 -46.98742676 26.7436676 C-43.86741528 24.84949345 -40.74684726 22.9562474 -37.62524414 21.06469727 C-31.44404408 17.31740061 -25.27158264 13.55777823 -19.125 9.75390625 C-18.07771729 9.10824707 -17.03043457 8.46258789 -15.95141602 7.79736328 C-13.97199665 6.57587955 -11.99580456 5.34914743 -10.02319336 4.11669922 C-9.13768799 3.57158691 -8.25218262 3.02647461 -7.33984375 2.46484375 C-6.57019287 1.986521 -5.80054199 1.50819824 -5.00756836 1.01538086 C-3 0 -3 0 0 0 Z " fill="#D28B00" transform="translate(423,166)"/>
<path d="M0 0 C4.2633668 0.64252073 7.70587371 2.11581098 11.58984375 3.96484375 C12.23462173 4.26984802 12.87939972 4.57485229 13.54371643 4.88909912 C15.67750897 5.89999368 17.80747023 6.91870397 19.9375 7.9375 C21.4359532 8.64935976 22.93465594 9.36069443 24.43359375 10.0715332 C27.61964008 11.58335599 30.8041912 13.09827096 33.98779297 14.61523438 C39.10271569 17.05104332 44.22463518 19.47190526 49.34765625 21.890625 C52.73187838 23.48935577 56.11594781 25.08840955 59.5 26.6875 C60.30637909 27.0684079 61.11275818 27.4493158 61.943573 27.84176636 C70.3390851 31.80956496 78.72614868 35.78213449 87 40 C86.4060683 43.44748127 85.52354668 46.41204555 84.09814453 49.60327148 C83.7074881 50.48446152 83.31683167 51.36565155 82.91433716 52.27354431 C82.27998245 53.68308128 82.27998245 53.68308128 81.6328125 55.12109375 C81.19742157 56.09861099 80.76203064 57.07612823 80.31344604 58.08326721 C79.3928168 60.14779936 78.46975466 62.2112481 77.54443359 64.27368164 C76.13264564 67.4204584 74.72776079 70.57024107 73.32421875 73.72070312 C72.42748479 75.72934594 71.53036215 77.73781529 70.6328125 79.74609375 C70.21395782 80.68376083 69.79510315 81.62142792 69.36355591 82.58750916 C67.33366173 87.10967173 65.26295941 91.58955693 63 96 C57.86570359 95.40442162 53.73998833 93.01764133 49.25 90.625 C48.47011719 90.22539063 47.69023438 89.82578125 46.88671875 89.4140625 C46.14550781 89.0221875 45.40429688 88.6303125 44.640625 88.2265625 C43.96547852 87.87158691 43.29033203 87.51661133 42.59472656 87.15087891 C41 86 41 86 40 83 C40.60498047 80.79516602 40.60498047 80.79516602 41.6171875 78.25390625 C41.97683594 77.33416016 42.33648438 76.41441406 42.70703125 75.46679688 C43.28517578 74.02916992 43.28517578 74.02916992 43.875 72.5625 C44.62432403 70.66873056 45.37179248 68.77422561 46.1171875 66.87890625 C46.45347168 66.0391626 46.78975586 65.19941895 47.13623047 64.33422852 C47.91354278 62.23363977 48.50771839 60.1825742 49 58 C47.35 57.67 45.7 57.34 44 57 C42.89324381 59.1862225 41.78955622 61.37390948 40.6875 63.5625 C40.2244043 64.47612305 40.2244043 64.47612305 39.75195312 65.40820312 C37.6720933 69.54602951 35.7871417 73.72735662 34 78 C29.37324343 76.6077541 25.35313769 74.70479016 21.125 72.375 C19.39636719 71.42753906 19.39636719 71.42753906 17.6328125 70.4609375 C16.76398438 69.97882813 15.89515625 69.49671875 15 69 C16 63 16 63 22 47 C10.78 42.05 -0.44 37.1 -12 32 C-11.20194736 27.21168416 -10.36363137 24.06268434 -8.49609375 19.7265625 C-8.00302734 18.57285156 -7.50996094 17.41914062 -7.00195312 16.23046875 C-6.48568359 15.04066406 -5.96941406 13.85085938 -5.4375 12.625 C-4.91736328 11.41199219 -4.39722656 10.19898438 -3.86132812 8.94921875 C-2.58008244 5.96356367 -1.29280626 2.98066312 0 0 Z " fill="#976813" transform="translate(1237,924)"/>
<path d="M0 0 C3.15844818 0.65748573 5.7053221 1.76838139 8.546875 3.28515625 C9.81337891 3.95708008 9.81337891 3.95708008 11.10546875 4.64257812 C11.97816406 5.11115234 12.85085937 5.57972656 13.75 6.0625 C14.63816406 6.53494141 15.52632812 7.00738281 16.44140625 7.49414062 C18.62971037 8.65888314 20.81578248 9.82761712 23 11 C22.36352687 17.00103235 20.12278022 22.30423384 17.9375 27.875 C17.37192383 29.33679688 17.37192383 29.33679688 16.79492188 30.828125 C15.86835624 33.22077549 14.93659209 35.61126054 14 38 C16.97 38.495 16.97 38.495 20 39 C22.97 32.4 25.94 25.8 29 19 C32.75084639 19.75016928 34.64514273 20.13603471 37.76953125 21.84765625 C38.43017578 22.20537109 39.09082031 22.56308594 39.77148438 22.93164062 C40.78178711 23.49141602 40.78178711 23.49141602 41.8125 24.0625 C42.50537109 24.43955078 43.19824219 24.81660156 43.91210938 25.20507812 C45.61128985 26.13083852 47.30609425 27.06462312 49 28 C46.72564796 35.18216433 43.96415819 42.0758202 41 49 C43.12388319 50.00242274 45.24909801 51.00187281 47.375 52 C48.36330811 52.46660034 48.36330811 52.46660034 49.37158203 52.94262695 C53.20753567 54.74092559 57.06249783 56.46493411 60.96875 58.10546875 C62.19392334 58.62657227 62.19392334 58.62657227 63.44384766 59.15820312 C65.04771383 59.83724508 66.65675177 60.50421541 68.27099609 61.15820312 C73.73582033 63.48877226 73.73582033 63.48877226 74.87719727 65.69750977 C75.06095357 69.14284919 73.81728246 71.5738103 72.47265625 74.734375 C72.20488876 75.37240051 71.93712128 76.01042603 71.66123962 76.66778564 C70.80555138 78.69984874 69.93431612 80.72481127 69.0625 82.75 C68.47877955 84.1284671 67.89608491 85.50736906 67.31445312 86.88671875 C65.88816042 90.26293539 64.44785123 93.63296296 63 97 C58.04786262 95.48291048 53.5111556 93.45127887 48.859375 91.2109375 C48.07149094 90.835065 47.28360687 90.4591925 46.47184753 90.07192993 C44.77745631 89.26316774 43.08380893 88.45284564 41.39083862 87.64111328 C37.81866356 85.92848372 34.24280024 84.22362368 30.667099 82.51837158 C28.83249697 81.64338318 26.99807648 80.76801404 25.16383362 79.89227295 C16.83222938 75.91531056 8.48759575 71.96639356 0.13464355 68.03448486 C-2.01852172 67.02070637 -4.17088964 66.00524867 -6.32324219 64.98974609 C-7.64381967 64.36803545 -8.96445445 63.74644651 -10.28515625 63.125 C-11.41832275 62.59132813 -12.55148926 62.05765625 -13.71899414 61.5078125 C-17.12313545 59.94341212 -20.55048745 58.46106008 -24 57 C-23.40693651 53.55601492 -22.52673413 50.59843484 -21.09814453 47.41259766 C-20.7074881 46.53463531 -20.31683167 45.65667297 -19.91433716 44.75210571 C-19.49143402 43.81555145 -19.06853088 42.87899719 -18.6328125 41.9140625 C-18.19742157 40.93891693 -17.76203064 39.96377136 -17.31344604 38.95907593 C-15.92209165 35.8455458 -14.52373342 32.73522114 -13.125 29.625 C-11.73499881 26.5212261 -10.34641645 23.41682033 -8.95797729 20.31234741 C-8.09442476 18.38293205 -7.2296764 16.45405132 -6.36355591 14.52578735 C-4.19797885 9.70176488 -2.0652741 4.86784856 0 0 Z " fill="#976813" transform="translate(154,440)"/>
<path d="M0 0 C7.32410042 1.76383152 14.4843586 4.05072855 21.625 6.4375 C22.52637695 6.72568604 23.42775391 7.01387207 24.35644531 7.31079102 C25.20045898 7.59881592 26.04447266 7.88684082 26.9140625 8.18359375 C27.6767041 8.43681396 28.4393457 8.69003418 29.22509766 8.95092773 C31 10 31 10 31.70469666 11.79077148 C32.06730022 14.50348755 31.54975654 15.87895717 30.49975586 18.39672852 C30.14398468 19.26564728 29.7882135 20.13456604 29.42166138 21.02981567 C28.82428665 22.44011551 28.82428665 22.44011551 28.21484375 23.87890625 C27.60296707 25.36147415 27.60296707 25.36147415 26.97872925 26.87399292 C25.64176387 30.10779112 24.28958529 33.33499816 22.9375 36.5625 C22.01849644 38.77884837 21.10077773 40.99572993 20.18432617 43.21313477 C18.79719892 46.56932465 17.40943064 49.92522499 16.01759338 53.27946472 C11.86234523 63.29790756 7.81713736 73.35808098 3.8125 83.4375 C2.95236761 85.60093979 2.09200539 87.76428625 1.23074341 89.92727661 C0.51308611 91.73026568 -0.20287934 93.53392791 -0.91870117 95.33764648 C-2 98 -2 98 -3 100 C-10.29686576 97.92417718 -17.38426039 95.45664455 -24.4765625 92.76953125 C-26.05345352 92.1766053 -26.05345352 92.1766053 -27.66220093 91.57170105 C-30.98431578 90.32174579 -34.30467597 89.06720354 -37.625 87.8125 C-39.89181219 86.95867929 -42.15873821 86.10516071 -44.42578125 85.25195312 C-49.95184128 83.17145908 -55.47647226 81.08720711 -61 79 C-60.54054837 77.58584092 -60.07792388 76.1727125 -59.61401367 74.76000977 C-59.35673996 73.97296158 -59.09946625 73.18591339 -58.83439636 72.37501526 C-57.57034676 68.77704045 -55.96775093 65.36894921 -54.3125 61.9375 C-53.99216797 61.26267578 -53.67183594 60.58785156 -53.34179688 59.89257812 C-52.56580539 58.25952141 -51.78358474 56.62942689 -51 55 C-43.85220408 56.89079972 -36.7903874 58.97111366 -29.75 61.23046875 C-26.99443664 62.13473885 -26.99443664 62.13473885 -24 62 C-23.67 60.35 -23.34 58.7 -23 57 C-29.93 54.36 -36.86 51.72 -44 49 C-40.625 38.875 -40.625 38.875 -38.3125 33.9375 C-37.65701172 32.52791016 -37.65701172 32.52791016 -36.98828125 31.08984375 C-36.66214844 30.40019531 -36.33601563 29.71054688 -36 29 C-28.01323028 30.51473219 -20.59877122 33.16802552 -13 36 C-12.88591797 35.15219971 -12.77183594 34.30439941 -12.65429688 33.4309082 C-11.95799505 29.77974046 -10.85608003 26.5769701 -9.53125 23.10546875 C-9.29088013 22.47264481 -9.05051025 21.83982086 -8.80285645 21.18782043 C-8.29781271 19.86158878 -7.7900822 18.53637741 -7.27978516 17.2121582 C-6.49647547 15.1783488 -5.72221676 13.14126369 -4.94921875 11.10351562 C-1.14857743 1.14857743 -1.14857743 1.14857743 0 0 Z " fill="#006E32" transform="translate(531,1240)"/>
<path d="M0 0 C3.979432 0.57750702 7.57385366 1.426381 11.34692383 2.81005859 C12.3643013 3.18069427 13.38167877 3.55132996 14.42988586 3.93319702 C15.51134384 4.33422638 16.59280182 4.73525574 17.70703125 5.1484375 C18.82816818 5.56163239 19.94930511 5.97482727 21.10441589 6.40054321 C23.46643111 7.27358333 25.82735731 8.14957476 28.18725586 9.02832031 C31.81246479 10.37498692 35.44402909 11.70341736 39.07617188 13.03125 C41.37020307 13.8817036 43.66383726 14.73322901 45.95703125 15.5859375 C47.04861038 15.9829184 48.14018951 16.37989929 49.2648468 16.78890991 C50.26646347 17.16584991 51.26808014 17.54278992 52.30004883 17.93115234 C53.18574051 18.25900726 54.07143219 18.58686218 54.98396301 18.9246521 C57 20 57 20 58 23 C56.9463235 26.50697142 55.32480016 29.79375818 53.8125 33.125 C53.21211914 34.52298828 53.21211914 34.52298828 52.59960938 35.94921875 C52.20193359 36.83480469 51.80425781 37.72039062 51.39453125 38.6328125 C51.03206299 39.44637207 50.66959473 40.25993164 50.29614258 41.09814453 C49 43 49 43 47.20288086 43.8762207 C44.263677 44.0413738 42.14027784 43.30913862 39.359375 42.34765625 C38.28945313 41.98349609 37.21953125 41.61933594 36.1171875 41.24414062 C35.00601563 40.85419922 33.89484375 40.46425781 32.75 40.0625 C31.62335938 39.67642578 30.49671875 39.29035156 29.3359375 38.89257812 C26.55391536 37.93773154 23.77562868 36.9732436 21 36 C20.34 38.31 19.68 40.62 19 43 C19.87398437 43.23783203 19.87398437 43.23783203 20.765625 43.48046875 C27.7493444 45.4679738 34.34533188 48.10716317 41 51 C38.83836487 57.93998648 36.1063786 64.43117569 33 71 C25.3194457 68.71143755 17.65750046 66.36446331 10 64 C9.88519287 64.84780029 9.77038574 65.69560059 9.65209961 66.5690918 C8.95971049 70.2119762 7.87171125 73.42503673 6.56640625 76.89453125 C6.32840805 77.52735519 6.09040985 78.16017914 5.84519958 78.81217957 C5.3444937 80.13845635 4.84095693 81.46366756 4.3347168 82.7878418 C3.55940237 84.82062161 2.79782316 86.85820235 2.03710938 88.89648438 C1.54769217 90.18781001 1.05748583 91.47883689 0.56640625 92.76953125 C0.12240479 93.94104736 -0.32159668 95.11256348 -0.77905273 96.31958008 C-2 99 -2 99 -4 100 C-6.37861059 99.30622283 -8.65556336 98.54565729 -10.9765625 97.69140625 C-11.66181 97.44583481 -12.3470575 97.20026337 -13.05307007 96.94725037 C-15.24633691 96.15940587 -17.43562856 95.36109792 -19.625 94.5625 C-21.10912556 94.02730258 -22.59349772 93.49278847 -24.078125 92.95898438 C-27.72166134 91.64724168 -31.36166622 90.32610101 -35 89 C-32.49934138 79.43570419 -28.66825166 70.3912115 -24.9609375 61.25 C-24.27223013 59.54287103 -23.5838919 57.83559309 -22.89590454 56.12817383 C-21.09519691 51.66239006 -19.28905694 47.19882268 -17.48187256 42.73565674 C-16.0026758 39.07979361 -14.52744103 35.42233808 -13.05238914 31.76480103 C-11.2940833 27.40515753 -9.53400229 23.04623168 -7.7734375 18.6875 C-7.43738873 17.85536987 -7.10133995 17.02323975 -6.75510788 16.16589355 C-5.8082367 13.82244643 -4.86015742 11.4794923 -3.91162109 9.13671875 C-3.63005661 8.43961288 -3.34849213 7.74250702 -3.05839539 7.02427673 C-1.11521361 2.23042722 -1.11521361 2.23042722 0 0 Z " fill="#006E32" transform="translate(926,121)"/>
<path d="M0 0 C0.5064233 3.70748547 1.00399155 7.41610799 1.5 11.125 C1.64308594 12.17171875 1.78617188 13.2184375 1.93359375 14.296875 C2.58885754 19.22695492 3.20707401 24.01296747 3 29 C0.58424393 29.50478485 -1.83244361 30.00397642 -4.25 30.5 C-4.93191406 30.64308594 -5.61382813 30.78617188 -6.31640625 30.93359375 C-9.64633121 31.61251049 -12.58332551 32 -16 32 C-15.92483154 32.7052179 -15.84966309 33.41043579 -15.7722168 34.13702393 C-15.06375121 40.78725593 -14.35729618 47.4376981 -13.65309143 54.08838272 C-13.29099399 57.50744564 -12.9281232 60.92642278 -12.56347656 64.34521484 C-12.14417284 68.27677437 -11.72824798 72.20868781 -11.3125 76.140625 C-11.18125732 77.36678528 -11.05001465 78.59294556 -10.91479492 79.85626221 C-10.79467041 80.99714294 -10.6745459 82.13802368 -10.55078125 83.31347656 C-10.44419189 84.31719299 -10.33760254 85.32090942 -10.2277832 86.3550415 C-10 89 -10 89 -10 93 C-13.89409888 93.84158017 -17.79053312 94.6718106 -21.6875 95.5 C-22.79029297 95.73847656 -23.89308594 95.97695312 -25.02929688 96.22265625 C-26.09599609 96.44824219 -27.16269531 96.67382812 -28.26171875 96.90625 C-29.24100342 97.11572266 -30.22028809 97.32519531 -31.22924805 97.54101562 C-33.88489441 97.98093237 -36.31590069 98.03309118 -39 98 C-39.18459023 96.95763435 -39.18459023 96.95763435 -39.37290955 95.89421082 C-40.5329204 89.34605806 -41.69509476 82.79829344 -42.85970211 76.25095654 C-43.45836379 72.88488166 -44.05618728 69.5186624 -44.65209961 66.15209961 C-45.33719008 62.28194516 -46.0259184 58.41244247 -46.71484375 54.54296875 C-47.03520851 52.72879707 -47.03520851 52.72879707 -47.36204529 50.87797546 C-47.56217728 49.75703995 -47.76230927 48.63610443 -47.96850586 47.48120117 C-48.14393417 46.49302902 -48.31936249 45.50485687 -48.50010681 44.48674011 C-48.9701861 41.88434447 -48.9701861 41.88434447 -50 39 C-51.12019531 39.2165625 -52.24039063 39.433125 -53.39453125 39.65625 C-54.86715999 39.93764403 -56.33981776 40.21888611 -57.8125 40.5 C-58.55048828 40.64308594 -59.28847656 40.78617188 -60.04882812 40.93359375 C-63.07794391 41.50926281 -65.909196 42 -69 42 C-69.50452107 37.60467325 -70.00282816 33.20866362 -70.5 28.8125 C-70.64308594 27.56662109 -70.78617188 26.32074219 -70.93359375 25.03710938 C-71.06894531 23.83505859 -71.20429687 22.63300781 -71.34375 21.39453125 C-71.46943359 20.28956299 -71.59511719 19.18459473 -71.72460938 18.04614258 C-71.96921276 15.34054288 -72.05299995 12.71403915 -72 10 C-56.09960888 7.31823835 -40.15536636 4.98747191 -24.1875 2.75 C-22.73686661 2.5453714 -22.73686661 2.5453714 -21.25692749 2.33660889 C-18.47770069 1.94523653 -15.69794833 1.55785988 -12.91796875 1.171875 C-11.65690308 0.99402969 -11.65690308 0.99402969 -10.37036133 0.81259155 C-9.58967285 0.70524689 -8.80898438 0.59790222 -8.00463867 0.48730469 C-7.32503586 0.39278015 -6.64543304 0.29825562 -5.94523621 0.2008667 C-3.97284775 -0.00280376 -1.98287617 0 0 0 Z " fill="#D28B00" transform="translate(675,93)"/>
<path d="M0 0 C1.43035007 7.74016001 2.85380124 15.4815658 4.27246094 23.22387695 C4.75540151 25.85772929 5.24053356 28.4911639 5.72753906 31.12426758 C6.42668274 34.90891781 7.12014274 38.69457192 7.8125 42.48046875 C8.03123779 43.65772018 8.24997559 44.83497162 8.4753418 46.04789734 C8.67554932 47.14866104 8.87575684 48.24942474 9.08203125 49.38354492 C9.34850464 50.83249397 9.34850464 50.83249397 9.62036133 52.31071472 C9.98804528 54.91531516 10.07011343 57.37382313 10 60 C10.94101562 59.7834375 11.88203125 59.566875 12.8515625 59.34375 C14.09679687 59.0653125 15.34203125 58.786875 16.625 58.5 C17.85476563 58.2215625 19.08453125 57.943125 20.3515625 57.65625 C23.67152228 57.05908379 26.63908451 56.87590466 30 57 C30.50832642 60.83227646 31.00514174 64.66596304 31.5 68.5 C31.64308594 69.57765625 31.78617188 70.6553125 31.93359375 71.765625 C32.06894531 72.82265625 32.20429687 73.8796875 32.34375 74.96875 C32.53227539 76.41411133 32.53227539 76.41411133 32.72460938 77.88867188 C33.05445928 81.615274 33.04234626 85.25941344 33 89 C24.79453252 90.18003923 16.58822776 91.35400171 8.38080597 92.52036285 C4.56919681 93.06222416 0.75790183 93.60611994 -3.05273438 94.15478516 C-6.73491463 94.68487659 -10.41784157 95.20946697 -14.10133362 95.73036194 C-15.50170955 95.92935747 -16.90181252 96.13028438 -18.30162048 96.33323669 C-20.27259721 96.61865301 -22.24468426 96.89636895 -24.21679688 97.17382812 C-25.33598511 97.33371216 -26.45517334 97.49359619 -27.60827637 97.6583252 C-31.3880946 98.0390958 -35.20105118 98 -39 98 C-39.99 88.76 -40.98 79.52 -42 70 C-29 67 -29 67 -24 66 C-23.8706856 58.91033791 -24.37252522 52.01501521 -25.09375 44.96484375 C-25.20473022 43.84557999 -25.31571045 42.72631622 -25.43005371 41.57313538 C-25.78257153 38.02749689 -26.14118879 34.48250657 -26.5 30.9375 C-26.74128984 28.52152473 -26.98217939 26.10550945 -27.22265625 23.68945312 C-27.81047416 17.79249795 -28.40328991 11.89606166 -29 6 C-25.02267913 4.83595066 -21.07635363 3.73954118 -17.01171875 2.9296875 C-16.14095703 2.75566406 -15.27019531 2.58164063 -14.37304688 2.40234375 C-13.04370117 2.14130859 -13.04370117 2.14130859 -11.6875 1.875 C-10.78193359 1.69324219 -9.87636719 1.51148438 -8.94335938 1.32421875 C-2.2675047 0 -2.2675047 0 0 0 Z " fill="#D28B00" transform="translate(818,1269)"/>
<path d="M0 0 C-0.94051205 6.7547619 -1.88269253 13.5092897 -2.82592773 20.26367188 C-3.14530464 22.55203221 -3.46432673 24.84044211 -3.78295898 27.12890625 C-5.77472345 41.43197074 -7.822254 55.72400163 -10 70 C-13.53889054 69.21777718 -15.63342323 68.00794519 -18.52734375 65.7890625 C-19.39560791 65.12672607 -20.26387207 64.46438965 -21.15844727 63.78198242 C-22.07553467 63.07017822 -22.99262207 62.35837402 -23.9375 61.625 C-24.88101318 60.89837158 -25.82452637 60.17174316 -26.79663086 59.4230957 C-37.79911546 50.90349351 -48.25914002 41.90901986 -58.44677734 32.43554688 C-60.08641084 30.92013585 -61.73904423 29.41994273 -63.39453125 27.921875 C-69.29654481 22.56334656 -74.97252606 17.21578596 -80 11 C-79.67 10.34 -79.34 9.68 -79 9 C-76.14875793 8.41781616 -76.14875793 8.41781616 -72.28051758 7.94677734 C-71.57799866 7.85870316 -70.87547974 7.77062897 -70.15167236 7.67988586 C-67.81696885 7.38957198 -65.4808884 7.1126027 -63.14453125 6.8359375 C-61.52357023 6.63771562 -59.90269604 6.43878245 -58.28190613 6.23916626 C-54.87699191 5.82175112 -51.47141214 5.41047083 -48.06518555 5.00390625 C-43.70736714 4.48363175 -39.35099916 3.95225608 -34.9950304 3.41673851 C-31.64359996 3.00529765 -28.29169576 2.59783724 -24.93961143 2.19176102 C-23.3340197 1.9971568 -21.72852041 1.8017882 -20.12311745 1.60563278 C-17.87132569 1.33150678 -15.61900415 1.06225628 -13.36645508 0.79443359 C-12.08595779 0.64058197 -10.80546051 0.48673035 -9.48616028 0.32821655 C-6.29666836 0.02793086 -3.20074523 -0.06257833 0 0 Z " fill="#70B07A" transform="translate(485,1021)"/>
<path d="M0 0 C3.51716993 1.31928086 6.65308518 2.87348391 9.86328125 4.8203125 C11.19262695 5.62275391 11.19262695 5.62275391 12.54882812 6.44140625 C13.46083984 6.99699219 14.37285156 7.55257813 15.3125 8.125 C16.70952148 8.96998047 16.70952148 8.96998047 18.13476562 9.83203125 C20.42521142 11.2180446 22.71352076 12.60745628 25 14 C23.85504218 17.01404673 22.66987806 19.74447733 20.890625 22.43359375 C20.26474487 23.38878906 20.26474487 23.38878906 19.6262207 24.36328125 C19.17206787 25.04777344 18.71791504 25.73226563 18.25 26.4375 C17.24784305 27.96688809 16.24658405 29.49686485 15.24609375 31.02734375 C14.71612793 31.83671387 14.18616211 32.64608398 13.64013672 33.47998047 C10.8297656 37.7980291 8.0728332 42.14986207 5.3125 46.5 C4.1329823 48.35557669 2.95329053 50.21104275 1.7734375 52.06640625 C1.1659668 53.0217627 0.55849609 53.97711914 -0.06738281 54.96142578 C-3.56199649 60.45586259 -7.05967108 65.94829851 -10.5625 71.4375 C-11.22918701 72.48550781 -11.89587402 73.53351563 -12.58276367 74.61328125 C-15.9257807 79.84723344 -19.32893689 84.99016148 -23 90 C-25.93529012 89.38411686 -28.18833571 88.46317936 -30.7578125 86.92578125 C-31.46172119 86.50796387 -32.16562988 86.09014648 -32.89086914 85.65966797 C-33.62813232 85.21510254 -34.36539551 84.77053711 -35.125 84.3125 C-35.87966553 83.86277832 -36.63433105 83.41305664 -37.41186523 82.94970703 C-39.61081616 81.63791988 -41.80575586 80.3196406 -44 79 C-45.10214844 78.34128906 -46.20429688 77.68257812 -47.33984375 77.00390625 C-49.56278309 75.6739698 -51.78308866 74.33995133 -54 73 C-53.39409165 69.7486967 -52.31884707 67.80652395 -50.26171875 65.234375 C-49.69533691 64.51789795 -49.12895508 63.8014209 -48.54541016 63.06323242 C-47.9322998 62.29986572 -47.31918945 61.53649902 -46.6875 60.75 C-45.39597913 59.11679913 -44.10563389 57.48266797 -42.81640625 55.84765625 C-42.16945801 55.0292627 -41.52250977 54.21086914 -40.85595703 53.36767578 C-38.22630607 50.01298556 -35.66949601 46.60698254 -33.125 43.1875 C-3.57455758 3.57455758 -3.57455758 3.57455758 0 0 Z " fill="#006E32" transform="translate(410,1177)"/>
<path d="M0 0 C3.60845692 1.35332306 6.84548814 2.97131268 10.16015625 4.93359375 C11.5977832 5.7834082 11.5977832 5.7834082 13.06445312 6.65039062 C14.54848633 7.53500977 14.54848633 7.53500977 16.0625 8.4375 C17.55233398 9.31631836 17.55233398 9.31631836 19.07226562 10.21289062 C23.19259174 12.65733999 27.2107792 15.05916955 31 18 C29.42424221 22.93610872 26.53311408 26.4882273 23.375 30.5 C22.19233669 32.02445134 21.01006256 33.54920466 19.828125 35.07421875 C19.20357422 35.87649902 18.57902344 36.6787793 17.93554688 37.50537109 C14.63891837 41.75422958 11.38257968 46.03367446 8.125 50.3125 C7.45847412 51.18680664 6.79194824 52.06111328 6.10522461 52.96191406 C0.74426597 60.00159577 -4.57295332 67.07347802 -9.86474609 74.1652832 C-13.84648931 79.493908 -17.8981902 84.76324985 -22 90 C-25.84967428 89.42179989 -28.55259546 88.30647375 -31.86328125 86.27734375 C-32.74951172 85.73916016 -33.63574219 85.20097656 -34.54882812 84.64648438 C-35.46083984 84.08251953 -36.37285156 83.51855469 -37.3125 82.9375 C-38.24384766 82.36966797 -39.17519531 81.80183594 -40.13476562 81.21679688 C-42.42730656 79.81775907 -44.71543753 78.41201519 -47 77 C-46.42710131 72.97032711 -45.18334657 70.31738067 -42.96484375 66.921875 C-42.01037354 65.44714722 -42.01037354 65.44714722 -41.03662109 63.94262695 C-40.34391113 62.88906006 -39.65120117 61.83549316 -38.9375 60.75 C-37.84435101 59.06549752 -36.75121351 57.38098742 -35.65881348 55.69599915 C-34.5250521 53.94927685 -33.38800879 52.20472526 -32.25048828 50.46044922 C-28.75845886 45.09933013 -25.31910798 39.70447389 -21.875 34.3125 C-20.55992825 32.25779175 -19.24482422 30.20310416 -17.9296875 28.1484375 C-11.93624379 18.77638084 -5.96658183 9.38917363 0 0 Z " fill="#006E32" transform="translate(1067,193)"/>
<path d="M0 0 C2.64 0 5.28 0 8 0 C7.4273599 1.2549347 6.84128945 2.50374378 6.25 3.75 C5.92515625 4.44609375 5.6003125 5.1421875 5.265625 5.859375 C4 8 4 8 0 12 C0 8.04 0 4.08 0 0 Z " fill="#0B9895" transform="translate(738,289)"/>
<path d="M0 0 C1.32 0 2.64 0 4 0 C3.01 7.59 2.02 15.18 1 23 C0.67 23 0.34 23 0 23 C0 15.41 0 7.82 0 0 Z " fill="#189894" transform="translate(481,1021)"/>
</svg>
